<svg width="60" height="69" viewBox="0 0 60 69" fill="none" xmlns="http://www.w3.org/2000/svg">
<path d="M29.997 0C27.6265 0 25.7114 1.91515 25.7114 4.28566V6.85705C15.9347 8.83917 8.56875 17.4908 8.56875 27.8568V30.3746C8.56875 36.6692 6.25182 42.7494 2.0733 47.4637L1.08224 48.5753C-0.0427416 49.8342 -0.310595 51.6422 0.372431 53.1823C1.05546 54.7225 2.59562 55.7136 4.28309 55.7136H55.711C57.3985 55.7136 58.9252 54.7225 59.6217 53.1823C60.3181 51.6422 60.0368 49.8342 58.9118 48.5753L57.9208 47.4637C53.7423 42.7494 51.4253 36.6826 51.4253 30.3746V27.8568C51.4253 17.4908 44.0594 8.83917 34.2827 6.85705V4.28566C34.2827 1.91515 32.3675 0 29.997 0ZM36.0639 66.0661C37.6711 64.459 38.5684 62.276 38.5684 59.9992H29.997H21.4257C21.4257 62.276 22.323 64.459 23.9302 66.0661C25.5373 67.6732 27.7203 68.5705 29.997 68.5705C32.2738 68.5705 34.4568 67.6732 36.0639 66.0661Z" fill="white"/>
</svg>
