<svg width="18" height="25" viewBox="0 0 18 25" fill="none" xmlns="http://www.w3.org/2000/svg">
<path d="M12.483 18.75C12.9512 17.1924 13.9215 15.8643 14.8821 14.541C15.1357 14.1943 15.3892 13.8477 15.6331 13.4961C16.5985 12.1045 17.1642 10.4199 17.1642 8.59863C17.1642 3.84766 13.3217 0 8.58209 0C3.84244 0 0 3.84766 0 8.59375C0 10.415 0.565638 12.1045 1.53112 13.4912C1.77493 13.8428 2.02849 14.1895 2.28206 14.5361C3.24754 15.8594 4.2179 17.1924 4.68114 18.7451H12.483V18.75ZM8.58209 25C10.7374 25 12.483 23.252 12.483 21.0938V20.3125H4.68114V21.0938C4.68114 23.252 6.42681 25 8.58209 25ZM4.68114 8.59375C4.68114 9.02344 4.33005 9.375 3.90095 9.375C3.47185 9.375 3.12076 9.02344 3.12076 8.59375C3.12076 5.57129 5.56373 3.125 8.58209 3.125C9.01119 3.125 9.36228 3.47656 9.36228 3.90625C9.36228 4.33594 9.01119 4.6875 8.58209 4.6875C6.42681 4.6875 4.68114 6.43555 4.68114 8.59375Z" fill="#F0F0F0"/>
</svg>
