<svg width="144" height="144" viewBox="0 0 144 144" fill="none" xmlns="http://www.w3.org/2000/svg">
<rect width="144" height="144" fill="#202020"/>
<path d="M89.5151 45.9462C89.3208 44.3913 85.8976 47.1772 85.6613 47.4957C83.3206 50.6494 80.6258 60.4965 87.0518 60.7656C92.8137 61.0069 94.6375 54.2248 93.5676 49.6014C92.7366 46.0104 89.3537 45.5528 86.297 45.231" stroke="white" stroke-width="3" stroke-linecap="round"/>
<path d="M50.4661 45.9824C50.2718 44.4275 46.8486 47.2134 46.6123 47.5319C44.2716 50.6857 41.5768 60.5327 48.0028 60.8018C53.7646 61.0432 55.5885 54.261 54.5186 49.6376C53.6876 46.0466 50.3047 45.589 47.248 45.2673" stroke="white" stroke-width="3" stroke-linecap="round"/>
<path d="M30.6458 79.1318C30.9919 83.516 33.8607 87.1544 37.0424 90.0179C46.993 98.9734 61.0517 100.173 73.793 98.1626C86.1721 96.2094 98.4946 90.7826 107.107 81.5156C109.829 78.587 111.685 75.7847 112.53 71.9803" stroke="white" stroke-width="3" stroke-linecap="round"/>
</svg>
