<svg width="24" height="60" viewBox="0 0 24 60" fill="none" xmlns="http://www.w3.org/2000/svg">
<path d="M6 6C6 4.4087 6.63214 2.88258 7.75736 1.75736C8.88258 0.632141 10.4087 0 12 0C13.5913 0 15.1174 0.632141 16.2426 1.75736C17.3679 2.88258 18 4.4087 18 6C18 7.5913 17.3679 9.11742 16.2426 10.2426C15.1174 11.3679 13.5913 12 12 12C10.4087 12 8.88258 11.3679 7.75736 10.2426C6.63214 9.11742 6 7.5913 6 6ZM0 24C0 21.7875 1.7875 20 4 20H12C14.2125 20 16 21.7875 16 24V52H20C22.2125 52 24 53.7875 24 56C24 58.2125 22.2125 60 20 60H4C1.7875 60 0 58.2125 0 56C0 53.7875 1.7875 52 4 52H8V28H4C1.7875 28 0 26.2125 0 24Z" fill="white"/>
</svg>
