<svg width="60" height="53" viewBox="0 0 60 53" fill="none" xmlns="http://www.w3.org/2000/svg">
<path d="M29.9978 0C31.662 0 33.1973 0.878969 34.0411 2.32048L59.3554 45.4486C60.2109 46.9018 60.2109 48.6949 59.3788 50.1481C58.5467 51.6013 56.988 52.5038 55.3121 52.5038H4.68351C3.00761 52.5038 1.4489 51.6013 0.616813 50.1481C-0.215278 48.6949 -0.203559 46.8901 0.640252 45.4486L25.9546 2.32048C26.7984 0.878969 28.3336 0 29.9978 0ZM29.9978 15.0011C28.4391 15.0011 27.1851 16.2551 27.1851 17.8138V30.9397C27.1851 32.4984 28.4391 33.7524 29.9978 33.7524C31.5565 33.7524 32.8105 32.4984 32.8105 30.9397V17.8138C32.8105 16.2551 31.5565 15.0011 29.9978 15.0011ZM33.7481 41.253C33.7481 40.2583 33.353 39.3044 32.6497 38.6011C31.9464 37.8978 30.9925 37.5027 29.9978 37.5027C29.0032 37.5027 28.0493 37.8978 27.346 38.6011C26.6427 39.3044 26.2476 40.2583 26.2476 41.253C26.2476 42.2476 26.6427 43.2015 27.346 43.9048C28.0493 44.6081 29.0032 45.0032 29.9978 45.0032C30.9925 45.0032 31.9464 44.6081 32.6497 43.9048C33.353 43.2015 33.7481 42.2476 33.7481 41.253Z" fill="white"/>
</svg>
