<svg width="200" height="147" viewBox="0 0 200 147" fill="none" xmlns="http://www.w3.org/2000/svg">
<path d="M39.5125 121.114C42.246 121.055 44.4279 120.447 46.9205 119.512" stroke="#DE43D8" stroke-width="3" stroke-linecap="round"/>
<path d="M68.9434 125.318C73.3025 124.203 77.8743 123.854 82.1577 122.515" stroke="#DE43D8" stroke-width="3" stroke-linecap="round"/>
<path d="M104.382 106.698C104.502 106.219 106.388 106.531 106.64 106.565C108.847 106.862 111.045 107.638 112.991 108.7" stroke="#DE43D8" stroke-width="3" stroke-linecap="round"/>
<path d="M127.408 117.71C131.121 117.71 134.887 117.866 138.586 117.476C140.188 117.308 141.224 117.008 142.424 116.108" stroke="#DE43D8" stroke-width="3" stroke-linecap="round"/>
<path d="M156.839 113.706C161.027 112.82 165.441 112.771 169.675 112.059C174.285 111.285 178.867 110.331 183.468 109.501" stroke="#DE43D8" stroke-width="3" stroke-linecap="round"/>
<path fill-rule="evenodd" clip-rule="evenodd" d="M89.5587 76.937C89.666 76.078 90.4495 75.4686 91.3086 75.576C92.8154 75.7643 94.1848 76.3244 95.3534 76.8024C95.4867 76.8569 95.6173 76.9103 95.7453 76.962M95.6462 80.2636C95.6157 80.249 95.5801 80.233 95.539 80.2157C95.4061 80.1597 95.2549 80.1063 95.0871 80.0499C95.0596 80.0407 95.0273 80.0299 94.9939 80.0188C94.9407 80.001 94.8845 79.9823 94.84 79.9672C94.7635 79.9412 94.6647 79.9069 94.5708 79.8689C94.4443 79.8178 94.3206 79.7675 94.1993 79.7182C92.9704 79.2189 91.9908 78.8208 90.9197 78.687C90.0606 78.5796 89.4513 77.7961 89.5587 76.937" fill="#79E05F"/>
<path fill-rule="evenodd" clip-rule="evenodd" d="M97.1895 72.109C98.0552 72.109 98.7571 72.8108 98.7571 73.6766C98.7571 74.3653 98.6516 75.0236 98.5671 75.5509C98.5658 75.5592 98.5645 75.5674 98.5632 75.5756C98.4718 76.1466 98.4042 76.5794 98.3996 77.0029C98.3961 77.3225 98.4339 77.627 98.4991 77.9878C98.5173 78.0879 98.5425 78.2156 98.5705 78.3578C98.6262 78.6399 98.6932 78.9794 98.7388 79.2757C98.8705 80.1314 98.2835 80.9318 97.4278 81.0634C96.5721 81.1951 95.7717 80.6081 95.6401 79.7524C95.6016 79.5022 95.5629 79.309 95.5187 79.0887C95.4872 78.9317 95.4529 78.7609 95.414 78.5459C95.3317 78.0908 95.258 77.5684 95.2646 76.9688C95.2718 76.2991 95.3748 75.6572 95.4576 75.1412C95.4609 75.1206 95.4642 75.1001 95.4675 75.0799C95.558 74.5143 95.6219 74.0877 95.6219 73.6766C95.6219 72.8108 96.3237 72.109 97.1895 72.109Z" fill="#79E05F"/>
<path fill-rule="evenodd" clip-rule="evenodd" d="M102.6 79.9324C102.568 79.9347 102.536 79.937 102.504 79.9393C102.43 79.9446 102.356 79.9498 102.284 79.9549C101.041 80.0427 100.041 80.1133 99.2684 80.4646C98.4803 80.8229 97.5509 80.4744 97.1927 79.6862C96.8344 78.8981 97.1829 77.9687 97.9711 77.6105C99.2907 77.0106 100.859 76.9068 101.962 76.8337C102.073 76.8264 102.18 76.8193 102.281 76.8121C102.375 76.8053 102.474 76.7979 102.576 76.7902C103.814 76.6972 105.571 76.5652 107.097 77.0739C107.919 77.3477 108.362 78.2354 108.089 79.0567C107.815 79.8781 106.927 80.322 106.106 80.0482C105.2 79.7464 104.039 79.8295 102.6 79.9324Z" fill="#79E05F"/>
<path fill-rule="evenodd" clip-rule="evenodd" d="M97.2396 79.4176C97.7534 78.7208 98.7348 78.5725 99.4316 79.0863C99.7731 79.3381 100.087 79.5789 100.385 79.8077C101.15 80.3953 101.812 80.9038 102.58 81.3173C103.026 81.5576 103.436 81.7371 103.9 81.9401C104.199 82.071 104.52 82.2115 104.887 82.3844C105.67 82.753 106.007 83.6869 105.638 84.4703C105.269 85.2536 104.335 85.5898 103.552 85.2212C103.342 85.1224 103.091 85.0116 102.821 84.8921C102.268 84.6481 101.632 84.3675 101.094 84.0777C100.083 83.5337 99.1278 82.7992 98.3046 82.1664C98.0462 81.9678 97.8009 81.7792 97.571 81.6096C96.8742 81.0958 96.7258 80.1144 97.2396 79.4176Z" fill="#79E05F"/>
<path fill-rule="evenodd" clip-rule="evenodd" d="M97.8461 79.7627C98.3668 80.4544 98.2281 81.4372 97.5364 81.9578C95.8819 83.2031 94.1337 84.0212 92.1023 84.4727C91.9326 84.5104 91.7495 84.5364 91.6309 84.5532C91.6201 84.5548 91.6098 84.5562 91.6001 84.5576C91.4869 84.5738 91.4072 84.5859 91.3424 84.5983C90.8228 85.078 90.0245 85.1593 89.4101 84.7497C88.6898 84.2695 88.4951 83.2962 88.9754 82.5759C89.4761 81.8248 90.2849 81.6205 90.6148 81.5475C90.8192 81.5022 91.0192 81.4736 91.153 81.4545L91.156 81.454C91.318 81.4309 91.3811 81.4213 91.4221 81.4121C93.0063 81.0601 94.3453 80.4357 95.651 79.4529C96.3427 78.9323 97.3255 79.071 97.8461 79.7627Z" fill="#79E05F"/>
<path fill-rule="evenodd" clip-rule="evenodd" d="M199.919 95.3325C200.193 96.1538 199.749 97.0416 198.928 97.3154C198.413 97.487 197.914 97.6787 197.374 97.8859C197.077 98 196.768 98.1189 196.437 98.2417C195.557 98.5681 194.586 98.8966 193.592 99.0771C192.741 99.232 191.925 98.667 191.77 97.8152C191.615 96.9634 192.18 96.1474 193.032 95.9925C193.745 95.8628 194.507 95.6136 195.346 95.3022C195.603 95.2071 195.876 95.1024 196.157 94.9946C196.74 94.7708 197.359 94.5336 197.936 94.3411C198.757 94.0673 199.645 94.5112 199.919 95.3325Z" fill="#17691B"/>
<path fill-rule="evenodd" clip-rule="evenodd" d="M193.492 86.751C194.197 87.2542 194.36 88.2332 193.857 88.9377C193.133 89.9514 192.301 90.7275 191.509 91.4017C191.222 91.646 190.953 91.867 190.695 92.0793C190.2 92.4869 189.743 92.8627 189.27 93.31C188.641 93.905 187.649 93.8774 187.054 93.2484C186.459 92.6195 186.486 91.6273 187.115 91.0324C187.666 90.512 188.267 90.016 188.809 89.5697C189.046 89.3744 189.272 89.1887 189.476 89.0145C190.194 88.4035 190.801 87.8216 191.305 87.1154C191.809 86.4109 192.788 86.2478 193.492 86.751Z" fill="#17691B"/>
<path fill-rule="evenodd" clip-rule="evenodd" d="M180.877 81.8268C181.743 81.8268 182.445 82.5286 182.445 83.3944C182.445 84.7396 182.282 86.1458 182.132 87.4388C182.063 88.0348 181.997 88.6068 181.951 89.1376C181.876 90.0001 181.116 90.6385 180.254 90.5635C179.391 90.4885 178.753 89.7285 178.828 88.866C178.891 88.1387 178.969 87.4695 179.044 86.8289C179.183 85.6487 179.309 84.5655 179.309 83.3944C179.309 82.5286 180.011 81.8268 180.877 81.8268Z" fill="#17691B"/>
<path fill-rule="evenodd" clip-rule="evenodd" d="M164.834 83.5719C165.409 82.9249 166.4 82.8666 167.047 83.4418C168.209 84.4749 169.534 85.3118 170.985 86.2213C171.013 86.2388 171.041 86.2563 171.069 86.2738C172.461 87.146 173.973 88.0934 175.33 89.2878C175.98 89.8597 176.044 90.8503 175.472 91.5002C174.9 92.1501 173.909 92.2134 173.259 91.6414C172.099 90.6201 170.776 89.79 169.32 88.878L169.308 88.8704C167.893 87.9833 166.35 87.0165 164.964 85.785C164.317 85.2098 164.259 84.219 164.834 83.5719Z" fill="#17691B"/>
<path fill-rule="evenodd" clip-rule="evenodd" d="M161.544 92.3513C161.714 91.5024 162.54 90.9518 163.389 91.1216C163.978 91.2395 164.611 91.4506 165.13 91.6235C165.264 91.6683 165.391 91.7106 165.507 91.7479C166.159 91.9575 166.617 92.0664 166.982 92.0664C167.848 92.0664 168.549 92.7682 168.549 93.634C168.549 94.4997 167.848 95.2016 166.982 95.2016C166.084 95.2016 165.218 94.9481 164.548 94.7326C164.355 94.6706 164.178 94.612 164.014 94.5574C163.532 94.3976 163.154 94.2719 162.774 94.1959C161.925 94.0261 161.374 93.2003 161.544 92.3513Z" fill="#17691B"/>
<path fill-rule="evenodd" clip-rule="evenodd" d="M198.003 115.44C198.213 116.28 197.702 117.131 196.862 117.341C196.672 117.388 196.47 117.442 196.26 117.497C195.203 117.777 193.911 118.119 192.581 118.119C191.716 118.119 191.014 117.417 191.014 116.551C191.014 115.686 191.716 114.984 192.581 114.984C193.467 114.984 194.288 114.769 195.329 114.498C195.573 114.434 195.83 114.367 196.102 114.299C196.942 114.089 197.793 114.6 198.003 115.44Z" fill="#17691B"/>
<path fill-rule="evenodd" clip-rule="evenodd" d="M189.825 122.158C190.633 121.848 191.54 122.251 191.85 123.059C192.131 123.788 192.679 124.39 193.513 125.301C194.273 126.132 195.273 127.228 195.775 128.733C196.049 129.555 195.605 130.442 194.784 130.716C193.963 130.99 193.075 130.546 192.801 129.725C192.537 128.933 191.995 128.286 191.2 127.418C191.154 127.368 191.107 127.316 191.059 127.264C190.351 126.494 189.426 125.488 188.924 124.184C188.613 123.376 189.017 122.469 189.825 122.158Z" fill="#17691B"/>
<path fill-rule="evenodd" clip-rule="evenodd" d="M185.522 131.175C185.85 130.759 185.959 130.186 185.759 129.654C185.455 128.843 184.551 128.432 183.741 128.736C183.34 128.886 183.089 129.149 182.951 129.328C182.81 129.511 182.72 129.695 182.663 129.832C182.549 130.102 182.48 130.392 182.433 130.632C182.337 131.124 182.279 131.722 182.235 132.269C182.21 132.592 182.186 132.95 182.164 133.278C182.15 133.492 182.137 133.694 182.124 133.865C182.107 134.1 182.09 134.297 182.073 134.456C182.064 134.535 182.056 134.596 182.049 134.643C182.042 134.684 182.038 134.702 182.038 134.702C182.038 134.702 182.039 134.701 182.039 134.7C181.829 135.54 182.34 136.391 183.179 136.601C184.019 136.811 184.87 136.3 185.08 135.46C185.175 135.083 185.219 134.534 185.251 134.093C185.267 133.87 185.282 133.654 185.296 133.437C185.316 133.137 185.335 132.836 185.361 132.517C185.403 131.981 185.451 131.536 185.511 131.231C185.515 131.211 185.518 131.192 185.522 131.175Z" fill="#17691B"/>
<path fill-rule="evenodd" clip-rule="evenodd" d="M170.348 127.819C171.127 128.197 171.451 129.135 171.073 129.914C170.825 130.425 170.601 130.957 170.367 131.525C170.326 131.626 170.283 131.73 170.24 131.834C170.05 132.302 169.848 132.795 169.633 133.279C169.281 134.07 168.355 134.426 167.564 134.075C166.773 133.723 166.416 132.797 166.768 132.005C166.962 131.569 167.142 131.129 167.332 130.665C167.376 130.556 167.421 130.446 167.467 130.334C167.704 129.757 167.96 129.148 168.253 128.544C168.631 127.765 169.569 127.441 170.348 127.819Z" fill="#17691B"/>
<path fill-rule="evenodd" clip-rule="evenodd" d="M98.2624 78.8997C99.1282 78.8997 99.83 79.6016 99.83 80.4673C99.83 81.0363 99.8846 81.6256 99.9569 82.2809C99.9691 82.3923 99.9821 82.5065 99.9952 82.6231C100.057 83.1662 100.124 83.759 100.158 84.3463C100.177 84.6631 100.186 84.9354 100.195 85.18C100.215 85.7388 100.229 86.1531 100.335 86.6244C100.347 86.6804 100.358 86.7197 100.374 86.7788C100.386 86.8234 100.401 86.8792 100.422 86.9619C100.459 87.1098 100.512 87.3315 100.537 87.5784C100.623 88.4398 99.9946 89.208 99.1332 89.2942C98.2717 89.3803 97.5035 88.7518 97.4174 87.8903C97.4175 87.8913 97.4164 87.8801 97.4107 87.852C97.405 87.8238 97.3966 87.7872 97.3834 87.7356C97.3741 87.699 97.3657 87.6674 97.3556 87.6292C97.3497 87.6071 97.3433 87.5827 97.3357 87.5539C97.3177 87.4851 97.2957 87.3996 97.2753 87.3088C97.1011 86.5299 97.0723 85.6954 97.05 85.0466C97.0434 84.8566 97.0374 84.6825 97.0285 84.5304C96.9993 84.0354 96.944 83.5445 96.8832 83.0056C96.8692 82.8813 96.8549 82.7545 96.8406 82.6245C96.7668 81.9554 96.6948 81.2204 96.6948 80.4673C96.6948 79.6016 97.3967 78.8997 98.2624 78.8997Z" fill="#79E05F"/>
<path fill-rule="evenodd" clip-rule="evenodd" d="M8.40703 103.229C9.85035 102.542 11.666 102.332 12.8581 102.481C13.7172 102.589 14.3266 103.372 14.2192 104.231C14.1118 105.09 13.3283 105.7 12.4693 105.592C11.8342 105.513 10.6255 105.645 9.75512 106.06C9.33104 106.262 9.14544 106.456 9.08181 106.564C9.08108 106.565 9.08031 106.567 9.0795 106.568C9.05532 106.608 8.99801 106.704 9.10482 107C9.1409 107.1 9.26996 107.296 9.64806 107.54C9.99143 107.762 10.4213 107.946 10.8506 108.091C10.8738 108.094 10.9026 108.099 10.9379 108.104C10.9684 108.109 11.0049 108.115 11.0445 108.121C11.137 108.134 11.2465 108.151 11.3357 108.165C11.4013 108.176 11.4798 108.189 11.5534 108.205C11.5893 108.212 11.6413 108.223 11.6984 108.239C11.6992 108.239 11.7004 108.239 11.7017 108.239C11.7327 108.248 11.8852 108.288 12.0513 108.375C12.0523 108.376 12.0538 108.377 12.0557 108.378C12.1056 108.403 12.4519 108.58 12.6851 108.983C12.8424 109.255 12.9669 109.668 12.8514 110.142C12.7446 110.579 12.4851 110.848 12.3265 110.979C12.0582 111.201 11.7834 111.274 11.7288 111.288C11.727 111.289 11.7255 111.289 11.7242 111.29C11.6283 111.315 11.5487 111.327 11.5077 111.333C11.365 111.351 11.2189 111.352 11.1428 111.352C8.7093 111.352 6.12202 112.259 3.50878 113.222C3.48591 113.23 3.42716 113.259 3.35349 113.322C3.28135 113.383 3.22109 113.456 3.18071 113.524C3.16547 113.55 3.15525 113.571 3.14846 113.587C3.51637 114.306 4.38766 114.867 5.55345 115.176C7.14803 115.599 8.28878 115.863 9.32925 115.619C9.51413 115.555 9.68536 115.499 9.79766 115.464C9.82745 115.454 9.86151 115.444 9.89433 115.435C9.90982 115.43 9.93515 115.423 9.96456 115.416C9.97904 115.412 10.0035 115.406 10.0335 115.4L10.034 115.4C10.0532 115.396 10.1244 115.382 10.2158 115.374C10.2531 115.37 10.3707 115.361 10.5201 115.377C10.5932 115.384 10.7425 115.405 10.919 115.473C11.0806 115.536 11.433 115.703 11.6843 116.107C11.9747 116.574 11.9551 117.066 11.8494 117.404C11.7591 117.692 11.6081 117.881 11.5414 117.958C11.405 118.117 11.2677 118.21 11.2337 118.233L11.2321 118.234C11.1416 118.295 11.0633 118.334 11.0448 118.343L11.0434 118.344C11.013 118.359 10.9876 118.37 10.9732 118.376C10.9231 118.398 10.8734 118.417 10.8481 118.427C10.6454 118.503 10.4429 118.568 10.2409 118.621C10.0852 118.676 9.92655 118.734 9.79365 118.785C9.68497 118.827 9.63107 118.851 9.61507 118.858C9.38459 119.007 9.14823 119.213 8.84936 119.5C8.78629 119.56 8.71715 119.628 8.64325 119.7C8.3876 119.95 8.07502 120.255 7.76007 120.517C7.41889 120.802 7.10115 121.109 6.91878 121.393C6.87345 121.463 6.84735 121.514 6.83268 121.547C6.86744 121.595 6.92854 121.66 7.03881 121.741C7.21411 121.869 7.4489 121.992 7.76787 122.135C9.18252 122.769 10.6277 123.286 11.9744 123.416C12.5575 123.473 13.2083 123.449 13.7445 123.305C14.2871 123.16 14.5287 122.948 14.6302 122.77C15.0597 122.019 16.0173 121.758 16.769 122.187C17.5206 122.617 17.7818 123.574 17.3523 124.326C16.6827 125.498 15.549 126.068 14.5549 126.334C13.5542 126.602 12.5066 126.618 11.6724 126.537C9.81159 126.357 7.99356 125.672 6.48463 124.995C5.81698 124.696 4.5404 124.099 3.94298 122.785C3.37751 121.541 3.83083 120.398 4.28226 119.696C4.62433 119.165 5.06593 118.716 5.43177 118.387C5.25073 118.34 5.07528 118.293 4.90609 118.248C4.85335 118.234 4.80123 118.22 4.74973 118.207C3.17724 117.79 1.18549 116.828 0.265193 114.825C-0.23423 113.738 0.0477029 112.659 0.485702 111.922C0.917431 111.196 1.61871 110.577 2.42493 110.28C3.69031 109.813 5.10314 109.296 6.58628 108.896C6.41505 108.648 6.267 108.372 6.15601 108.065C5.75871 106.965 5.84069 105.888 6.38127 104.972C6.88069 104.125 7.67427 103.578 8.40703 103.229ZM11.1874 108.216C11.1875 108.216 11.186 108.216 11.1829 108.216L11.1874 108.216ZM6.81554 121.603C6.81459 121.603 6.81484 121.597 6.81909 121.583C6.81861 121.596 6.81648 121.603 6.81554 121.603ZM10.7868 108.079C10.7872 108.079 10.793 108.08 10.8029 108.083C10.7913 108.081 10.7863 108.079 10.7868 108.079Z" fill="#EDB480"/>
<path fill-rule="evenodd" clip-rule="evenodd" d="M45.7246 130.484C46.5903 130.484 47.2922 131.186 47.2922 132.051C47.2922 133.035 47.2398 134.236 47.0235 135.317C46.8994 135.938 46.6949 136.541 46.2783 137.086C45.8695 137.621 45.3531 137.971 44.8445 138.253C44.5544 138.414 44.2639 138.51 44.0441 138.573C43.8805 138.62 43.6976 138.664 43.5614 138.696C43.5236 138.705 43.4893 138.713 43.4601 138.72C43.3081 138.757 43.2188 138.783 43.1592 138.804C43.1497 138.817 43.1383 138.832 43.1243 138.853C43.1015 138.888 43.0745 138.932 43.036 138.998C43.0167 139.031 42.9969 139.065 42.9734 139.107L42.9709 139.111C42.9488 139.149 42.9237 139.193 42.8974 139.239C42.7801 139.441 42.6738 139.656 42.5957 139.865C42.5159 140.079 42.4797 140.248 42.4716 140.367C42.469 140.405 42.4696 140.433 42.4711 140.451M42.5016 140.469C42.5026 140.47 42.5327 140.484 42.6112 140.499C42.6986 140.515 42.8182 140.526 42.9826 140.528C43.1483 140.53 43.3255 140.523 43.5391 140.513C43.5583 140.512 43.5781 140.511 43.5983 140.51C43.7844 140.502 44.0087 140.491 44.2222 140.491H47.7234C48.8261 140.491 49.3853 140.463 49.9451 140.168C49.9604 140.16 49.9679 140.155 49.9706 140.153C49.9731 140.151 49.9753 140.149 49.9784 140.146C49.984 140.14 50.0086 140.112 50.0474 140.034C50.1901 139.749 50.3757 139.426 50.5257 139.165C50.5907 139.052 50.649 138.951 50.6942 138.87C50.8777 138.538 50.9923 138.289 51.0566 138.056C51.2233 137.449 51.2118 136.835 51.1962 136.003C51.1912 135.734 51.1858 135.443 51.1858 135.122C51.1858 134.984 51.1898 134.84 51.1932 134.722C51.1938 134.701 51.1944 134.681 51.1949 134.662C51.1987 134.522 51.2007 134.412 51.1985 134.311C51.1938 134.1 51.1706 134.027 51.1657 134.014C51.1618 134.004 51.1546 133.987 51.1448 133.964C51.0827 133.819 50.918 133.434 50.8497 133.024C50.7074 132.17 51.2843 131.362 52.1383 131.22C52.9922 131.078 53.7999 131.655 53.9422 132.509C53.9422 132.508 53.9423 132.509 53.9422 132.509C53.9426 132.511 53.9436 132.519 53.9576 132.556C53.968 132.583 53.9808 132.615 54.0049 132.673L54.0078 132.68C54.0294 132.732 54.059 132.803 54.0895 132.882C54.285 133.387 54.3248 133.879 54.3329 134.241C54.337 134.426 54.3329 134.603 54.3289 134.747C54.3282 134.773 54.3275 134.797 54.3269 134.821C54.3235 134.94 54.321 135.032 54.321 135.122C54.321 135.287 54.3254 135.474 54.3302 135.678C54.3512 136.573 54.38 137.794 54.0795 138.887C53.9167 139.479 53.661 139.984 53.4365 140.389C53.3347 140.573 53.2492 140.721 53.1723 140.853C53.0543 141.057 52.9567 141.226 52.8516 141.436C52.5543 142.031 52.1094 142.572 51.4053 142.943C50.1039 143.628 48.8168 143.627 47.8152 143.626C47.7843 143.626 47.7537 143.626 47.7234 143.626H44.2222C44.0864 143.626 43.9366 143.633 43.7327 143.643C43.717 143.643 43.7009 143.644 43.6845 143.645C43.4728 143.655 43.212 143.666 42.9437 143.663C42.4345 143.657 41.6964 143.6 41.005 143.224C40.4002 142.895 39.9328 142.423 39.6466 141.831C39.3685 141.255 39.309 140.665 39.3436 140.155C39.41 139.177 39.8363 138.267 40.1861 137.664C40.202 137.637 40.2198 137.605 40.2395 137.57C40.3925 137.298 40.6651 136.813 41.1316 136.405C41.6782 135.927 42.3704 135.758 42.6909 135.681C42.7002 135.678 42.7092 135.676 42.7178 135.674C42.7841 135.658 42.8411 135.644 42.8919 135.632C43.0081 135.605 43.0923 135.585 43.183 135.559C43.2874 135.529 43.324 135.511 43.3241 135.511C43.3241 135.511 43.3234 135.512 43.3219 135.513C43.6706 135.319 43.7581 135.22 43.7878 135.182C43.8096 135.153 43.878 135.058 43.9492 134.702C44.1058 133.919 44.157 132.958 44.157 132.051C44.157 131.186 44.8588 130.484 45.7246 130.484" fill="white"/>
<path fill-rule="evenodd" clip-rule="evenodd" d="M66.7052 131.56C67.5031 131.896 67.8776 132.815 67.5416 133.613C67.4893 133.737 67.4444 133.942 67.4275 134.282C67.4155 134.523 67.4185 134.736 67.4221 134.987C67.4241 135.123 67.4262 135.271 67.4262 135.44C67.4262 135.481 67.4292 135.541 67.4369 135.66C67.4374 135.67 67.4381 135.679 67.4387 135.689C67.4453 135.79 67.4543 135.929 67.4578 136.07C67.4645 136.34 67.4647 136.874 67.2261 137.399C66.8872 138.145 66.3354 138.643 65.8407 138.979C65.3615 139.304 64.843 139.537 64.4858 139.698L64.4767 139.702C64.4458 139.716 64.4046 139.736 64.3547 139.76C64.1621 139.851 63.8408 140.004 63.4909 140.125C63.4823 140.144 63.4733 140.164 63.4641 140.186C63.4012 140.332 63.3411 140.501 63.2838 140.675C63.2556 140.761 63.2298 140.843 63.2045 140.924L63.2025 140.93C63.2155 140.959 63.2328 140.993 63.2552 141.032C63.3117 141.13 63.3792 141.221 63.4391 141.286C63.4407 141.287 63.4422 141.287 63.4438 141.287C63.5465 141.298 63.6919 141.3 63.8909 141.291C64.0665 141.283 64.2441 141.269 64.4457 141.252C64.4732 141.25 64.5011 141.247 64.5295 141.245C64.7431 141.227 65.0136 141.206 65.263 141.206C65.9516 141.206 66.641 141.178 67.3683 141.148L67.3822 141.147C68.0948 141.118 68.8445 141.087 69.6047 141.087C69.8395 141.087 70.06 141.083 70.2702 141.066C70.4832 141.049 70.6423 141.02 70.7535 140.986C70.7545 140.986 70.7555 140.985 70.7564 140.985C70.7777 140.878 70.7979 140.776 70.8169 140.681C71.0447 139.541 71.1021 139.253 70.8301 138.709C69.9797 137.008 69.652 135.428 69.652 133.6C69.652 132.734 70.3538 132.033 71.2196 132.033C72.0853 132.033 72.7872 132.734 72.7872 133.6C72.7872 134.987 73.0211 136.081 73.6343 137.307C74.4195 138.877 74.1197 140.264 73.8895 141.328C73.8588 141.47 73.8292 141.607 73.8037 141.737C73.537 143.1 72.5018 143.729 71.6728 143.983C70.9033 144.219 70.0719 144.222 69.6047 144.222C68.9148 144.222 68.2247 144.25 67.4975 144.28L67.4819 144.281C66.7699 144.31 66.0214 144.341 65.263 144.341C65.1629 144.341 65.0187 144.351 64.7871 144.37C64.7618 144.372 64.7356 144.374 64.7085 144.376C64.5125 144.393 64.2721 144.413 64.033 144.423C63.5732 144.444 62.7164 144.464 61.9859 144.085C61.3432 143.751 60.8357 143.115 60.5357 142.592C60.3688 142.301 60.2126 141.954 60.1212 141.578C60.0337 141.217 59.9761 140.705 60.1555 140.166C60.1628 140.145 60.1742 140.108 60.1892 140.06C60.2593 139.835 60.4084 139.356 60.5829 138.949C60.6929 138.693 60.8506 138.369 61.0691 138.076C61.2587 137.821 61.6776 137.336 62.3787 137.189C62.4943 137.165 62.5976 137.117 62.8239 137.011C62.9202 136.966 63.0388 136.911 63.1901 136.843C63.5741 136.67 63.8546 136.538 64.0793 136.385C64.2093 136.297 64.2824 136.227 64.3241 136.176C64.324 136.167 64.3238 136.157 64.3236 136.147C64.3217 136.072 64.3167 135.995 64.3093 135.88L64.3081 135.861C64.3012 135.754 64.291 135.597 64.291 135.44C64.291 135.36 64.2897 135.261 64.2882 135.151C64.2842 134.853 64.2791 134.468 64.2962 134.126C64.321 133.628 64.3953 133.006 64.6521 132.396C64.9881 131.598 65.9073 131.224 66.7052 131.56Z" fill="white"/>
<path d="M193.738 101.899C191.866 102.211 190.015 102.367 188.187 102.367C186.002 102.367 184.085 102.122 182.435 101.632C182.524 101.186 182.569 100.874 182.569 100.695C182.569 99.6697 182.19 98.8225 181.432 98.1537C180.674 97.4848 179.826 97.1504 178.89 97.1504C178.221 97.1504 177.619 97.3734 177.084 97.8193C176.594 98.2206 176.304 98.8448 176.215 99.692C176.081 100.093 176.014 100.45 176.014 100.762L176.081 101.364C176.081 101.453 176.081 101.498 176.081 101.498C176.393 102.434 176.839 103.081 177.419 103.438C178.043 103.794 178.779 104.039 179.626 104.173C181.855 104.485 184.107 105.31 186.381 106.648C188.655 107.986 190.483 109.546 191.866 111.33C192.713 112.489 193.382 113.782 193.872 115.209C194.363 116.591 194.608 117.951 194.608 119.289C194.608 121.608 194.095 123.859 193.069 126.044C191.91 128.541 190.127 130.481 187.719 131.863C185.311 133.245 182.68 133.937 179.826 133.937C176.928 133.937 174.097 133.379 171.332 132.264C168.612 131.105 166.405 129.455 164.711 127.315C163.016 125.175 162.258 122.7 162.437 119.891V119.289C163.73 119.066 165.157 118.955 166.717 118.955C168.055 118.955 169.192 118.977 170.128 119.021C170.975 119.066 172.492 119.088 174.676 119.088C174.721 120.426 175.122 121.474 175.88 122.232C176.683 122.99 177.597 123.369 178.623 123.369C179.514 123.369 180.25 123.079 180.83 122.499C181.454 121.92 181.766 121.095 181.766 120.025C181.766 119.623 181.744 119.311 181.699 119.088C181.476 117.439 180.696 116.279 179.358 115.61C178.021 114.942 176.215 114.384 173.941 113.938L172.937 113.738C171.02 113.381 169.348 112.601 167.921 111.397C166.316 109.836 165.112 108.164 164.309 106.38C163.507 104.597 163.105 102.813 163.105 101.03C163.105 98.1314 163.975 95.4114 165.714 92.8698C167.497 90.2837 169.794 88.4109 172.603 87.2516C174.342 86.5382 176.505 86.1815 179.091 86.1815C182.435 86.1815 185.489 86.8057 188.254 88.0542C190.305 89.1243 191.932 90.5289 193.136 92.2679C194.34 94.0069 194.942 96.058 194.942 98.4212C194.942 99.313 194.808 100.472 194.541 101.899H193.738Z" fill="white"/>
<path d="M164.458 133.468C163.032 133.781 161.493 133.937 159.844 133.937C157.882 133.937 155.741 133.691 153.423 133.201C153.111 132.354 152.62 130.57 151.951 127.85C151.282 125.086 150.747 123.257 150.346 122.366L149.008 122.299L147.871 122.366C147.693 122.901 147.403 124.216 147.002 126.312C146.69 128.051 146.378 129.478 146.065 130.592C145.753 131.663 145.307 132.644 144.728 133.535C144.282 133.625 143.613 133.669 142.721 133.669C142.32 133.669 141.45 133.625 140.113 133.535C136.233 133.357 134.071 133.268 133.625 133.268C133.625 133.045 133.67 132.532 133.759 131.729C133.848 130.882 133.982 129.946 134.16 128.92L135.632 120.493C136.791 113.582 137.883 107.562 138.909 102.434C139.979 97.3065 141.361 91.8889 143.056 86.1815C143.68 86.0923 144.527 86.0477 145.597 86.0477H145.999C148.897 86.0477 151.728 85.9363 154.493 85.7133C155.028 87.809 155.518 89.8824 155.964 91.9335C156.41 93.94 156.811 95.7459 157.168 97.3511C158.595 103.549 159.554 107.674 160.044 109.725L164.458 133.468ZM150.48 113.805C149.499 104.887 149.031 100.428 149.075 100.428L149.008 99.7589C149.008 99.7589 148.964 100.294 148.875 101.364C148.741 104.708 148.54 107.361 148.273 109.323L147.671 113.805H150.48Z" fill="white"/>
<path d="M137.496 87.1848C136.113 94.542 134.553 101.699 132.814 108.655C131.075 115.61 128.89 123.904 126.259 133.535C125.278 133.535 124.609 133.558 124.253 133.602L123.584 133.669C122.781 133.758 121.956 133.803 121.109 133.803C118.3 133.803 116.115 133.535 114.554 133C110.675 119.311 108.067 104.218 106.729 87.7199C107.13 87.274 107.955 86.9396 109.204 86.7166C110.452 86.4937 111.834 86.3822 113.351 86.3822C114.777 86.3822 116.383 86.5383 118.166 86.8504L118.567 92.8031C118.835 97.2174 119.125 101.052 119.437 104.307C119.749 107.518 120.195 110.706 120.775 113.872C121.31 111.419 122.135 106.96 123.249 100.495C124.587 92.6024 125.479 87.8982 125.925 86.3822C127.664 86.7389 129.648 86.9173 131.877 86.9173C134.107 86.9173 135.69 87.0064 136.626 87.1848H137.496Z" fill="white"/>
<path d="M92.01 127.65C89.2009 121.496 87.3504 117.238 86.4586 114.875V127.716C86.4586 130.481 86.4809 132.376 86.5255 133.402C85.3216 133.758 84.0062 133.937 82.5794 133.937C82.1335 133.937 81.4646 133.892 80.5728 133.803C79.5919 133.714 78.8784 133.669 78.4326 133.669L75.1552 133.535V128.519C75.1552 125.665 75.1107 121.608 75.0215 116.346C74.9769 113.715 74.9546 109.725 74.9546 104.374C74.9546 97.1951 75.1552 91.1755 75.5565 86.3153C76.7605 86.0032 78.0981 85.8471 79.5696 85.8471C80.5505 85.8471 81.7322 85.9363 83.1144 86.1146C84.5413 86.293 85.5223 86.5605 86.0573 86.9172C86.6816 88.0766 87.4396 89.7041 88.3314 91.7998C89.2678 93.8509 90.1595 95.902 91.0067 97.9531L93.6821 104.106C93.5929 100.985 93.5483 97.3065 93.5483 93.0706C93.5483 89.6372 93.5706 87.274 93.6152 85.9809C95.4434 85.6242 97.383 85.4458 99.4341 85.4458C101.173 85.4458 102.979 85.6464 104.852 86.0478V133.468C104.718 133.468 104.45 133.535 104.049 133.669C103.603 133.847 102.823 133.937 101.708 133.937C101.485 133.981 100.304 133.914 98.1633 133.736C97.6282 133.691 96.9371 133.647 96.0899 133.602C95.2873 133.558 94.8191 133.558 94.6854 133.602L92.01 127.65Z" fill="white"/>
<path d="M74.6484 133.468C73.2216 133.781 71.6832 133.937 70.0334 133.937C68.0715 133.937 65.9312 133.691 63.6126 133.201C63.3005 132.354 62.81 130.57 62.1411 127.85C61.4723 125.086 60.9372 123.257 60.5359 122.366L59.1982 122.299L58.0612 122.366C57.8829 122.901 57.593 124.216 57.1917 126.312C56.8796 128.051 56.5675 129.478 56.2554 130.592C55.9432 131.663 55.4973 132.644 54.9177 133.535C54.4718 133.625 53.8029 133.669 52.9112 133.669C52.5099 133.669 51.6404 133.625 50.3027 133.535C46.4234 133.357 44.2608 133.268 43.8149 133.268C43.8149 133.045 43.8595 132.532 43.9487 131.729C44.0379 130.882 44.1717 129.946 44.35 128.92L45.8215 120.493C46.9808 113.582 48.0732 107.562 49.0988 102.434C50.1689 97.3065 51.5512 91.8889 53.2456 86.1815C53.8698 86.0923 54.717 86.0477 55.7872 86.0477H56.1885C59.0868 86.0477 61.9182 85.9363 64.6827 85.7133C65.2178 87.809 65.7083 89.8824 66.1542 91.9335C66.6001 93.94 67.0014 95.7459 67.3581 97.3511C68.7849 103.549 69.7436 107.674 70.2341 109.725L74.6484 133.468ZM60.6697 113.805C59.6887 104.887 59.2205 100.428 59.2651 100.428L59.1982 99.7589C59.1982 99.7589 59.1537 100.294 59.0645 101.364C58.9307 104.708 58.7301 107.361 58.4625 109.323L57.8606 113.805H60.6697Z" fill="white"/>
<path d="M25.791 97.7524C25.7018 97.9307 25.5903 99.3353 25.4566 101.966C25.3228 104.597 25.2559 107.272 25.2559 109.992C25.2559 112.757 25.3228 115.075 25.4566 116.948C25.5903 118.152 25.9471 119.334 26.5267 120.493C27.1064 121.608 27.7975 122.366 28.6001 122.767C30.1607 122.856 31.3424 122.143 32.145 120.627H32.0781C32.4794 119.78 32.68 118.509 32.68 116.814C32.68 115.477 32.7692 114.429 32.9476 113.671C34.0623 113.849 35.1324 113.938 36.158 113.938L39.2347 113.871C40.8399 113.871 42.3559 114.05 43.7828 114.406C44.3178 115.967 44.5854 117.595 44.5854 119.289C44.5854 121.831 43.9388 124.238 42.6457 126.512C41.3972 128.787 39.6583 130.637 37.4288 132.064C35.1993 133.491 32.7246 134.249 30.0047 134.338C29.2021 134.472 28.2657 134.539 27.1955 134.539C23.7176 134.539 20.6632 133.758 18.0325 132.198C15.4017 130.637 13.9302 128.296 13.6181 125.175C13.3952 120.716 13.2837 115.923 13.2837 110.795C13.2837 106.559 13.306 103.081 13.3506 100.361L13.4175 97.3511C13.3729 96.6823 13.4175 95.9242 13.5512 95.077C13.7296 94.1852 13.9525 93.4049 14.2201 92.7361C14.6214 91.7105 15.1341 90.685 15.7584 89.6594C16.4272 88.6339 17.1184 87.7867 17.8318 87.1178C18.7682 86.3598 20.1504 85.7133 21.9786 85.1782C23.7176 84.6431 25.5235 84.3756 27.3962 84.3756C30.4283 84.3756 33.282 85.089 35.9573 86.5159C38.6327 87.8982 40.773 89.8155 42.3782 92.2679C43.9834 94.6757 44.786 97.3065 44.786 100.16C44.786 101.855 44.4739 103.549 43.8497 105.243C41.9769 105.645 40.4163 105.845 39.1678 105.845C37.4734 105.845 35.1324 105.556 32.145 104.976L31.9443 102.434C31.8551 100.383 31.5876 98.8448 31.1417 97.8193C30.7404 96.7491 29.8486 96.2364 28.4663 96.2809C28.4218 96.2809 28.3549 96.3032 28.2657 96.3478C28.2211 96.3478 28.1319 96.3478 27.9982 96.3478H28.065C26.6828 96.5708 25.9248 97.039 25.791 97.7524Z" fill="white"/>
<path fill-rule="evenodd" clip-rule="evenodd" d="M66.5001 98.5981C66.2502 98.6364 65.9364 98.6845 65.6205 98.7088C64.7573 98.7752 64.0037 98.1293 63.9373 97.2661C63.8709 96.4029 64.5168 95.6493 65.3801 95.5829C65.5729 95.568 65.7805 95.5365 66.0658 95.4929L66.0718 95.492C66.3332 95.452 66.6649 95.4013 67.0052 95.3775C67.7029 95.3289 68.6336 95.3762 69.5202 95.9673C70.0804 96.3407 70.4881 96.7516 70.8059 97.2625C71.0591 97.6696 71.2367 98.1214 71.3825 98.4923C71.3971 98.5293 71.4113 98.5655 71.4253 98.6008C71.4354 98.6264 71.4457 98.6522 71.456 98.6783C71.8847 99.7607 72.4584 101.209 72.6293 102.623C72.7125 103.311 72.7399 103.987 72.7638 104.597L72.7656 104.644C72.7895 105.253 72.8107 105.797 72.8695 106.334C72.8971 106.585 72.9267 106.842 72.9568 107.104C73.1036 108.38 73.2627 109.764 73.2627 111.144C73.2627 111.822 73.1732 112.532 72.6472 113.161C72.4527 113.394 72.2299 113.572 72.1054 113.672C72.1007 113.675 72.0962 113.679 72.0919 113.683C72.079 113.693 72.0664 113.703 72.0539 113.713C71.9249 113.816 71.8162 113.903 71.6862 114.023C71.5783 114.123 71.4832 114.21 71.399 114.287C70.8879 114.754 70.7814 114.851 70.6805 115.154C70.4067 115.975 69.519 116.419 68.6977 116.145C67.8763 115.872 67.4324 114.984 67.7062 114.163C68.086 113.023 68.8465 112.352 69.3557 111.902C69.4297 111.837 69.4983 111.776 69.5597 111.719C69.7751 111.52 69.9654 111.369 70.0932 111.266C70.1047 111.257 70.1158 111.248 70.1263 111.24C70.1271 111.212 70.1275 111.181 70.1275 111.144C70.1275 109.961 69.9936 108.79 69.8481 107.519C69.8166 107.243 69.7844 106.962 69.753 106.675C69.6819 106.026 69.6569 105.384 69.6343 104.804C69.6332 104.776 69.6321 104.748 69.631 104.719C69.6067 104.098 69.5825 103.543 69.5167 102.999C69.3994 102.028 68.9771 100.934 68.5102 99.7547C68.3132 99.2571 68.2379 99.0699 68.1435 98.9182C68.0885 98.8297 68.0131 98.7306 67.7811 98.5759C67.7195 98.5348 67.6008 98.4788 67.2232 98.5051C67.0286 98.5187 66.8186 98.5494 66.5398 98.592C66.5268 98.594 66.5135 98.5961 66.5001 98.5981Z" fill="white"/>
<path fill-rule="evenodd" clip-rule="evenodd" d="M65.8847 96.4783C66.7139 96.2295 67.5878 96.7001 67.8366 97.5293C68.2267 98.8297 68.7662 100.104 69.3348 101.447C69.4869 101.806 69.641 102.17 69.7949 102.541C70.0913 103.255 70.2714 103.975 70.4203 104.588C70.4328 104.64 70.4451 104.69 70.4572 104.74C70.5969 105.318 70.7132 105.799 70.881 106.265C71.1128 106.908 71.1512 107.567 71.1674 108.036C71.1729 108.196 71.1762 108.335 71.1791 108.458C71.1864 108.764 71.1915 108.977 71.2226 109.195C71.3451 110.052 70.7495 110.846 69.8925 110.968C69.0354 111.091 68.2414 110.495 68.1189 109.638C68.0589 109.218 68.0482 108.741 68.0404 108.389C68.0384 108.298 68.0365 108.215 68.0341 108.144C68.0191 107.71 67.9848 107.476 67.9311 107.326C67.7025 106.691 67.5468 106.046 67.4143 105.496C67.4005 105.439 67.3869 105.382 67.3735 105.327C67.2238 104.71 67.0919 104.207 66.8993 103.743C66.7656 103.421 66.6251 103.09 66.4816 102.751C65.9049 101.391 65.2781 99.9117 64.8336 98.4302C64.5848 97.6009 65.0554 96.727 65.8847 96.4783Z" fill="white"/>
<path fill-rule="evenodd" clip-rule="evenodd" d="M138.213 131.806C139.079 131.806 139.781 132.508 139.781 133.374V142.34C139.781 142.961 139.699 143.642 139.351 144.234C138.95 144.917 138.337 145.254 137.749 145.392C137.247 145.51 136.724 145.491 136.364 145.474C136.239 145.468 136.122 145.461 136.009 145.455C135.734 145.439 135.483 145.425 135.193 145.425H131.631C130.765 145.425 130.063 144.723 130.063 143.857C130.063 142.991 130.765 142.289 131.631 142.289H135.193C135.58 142.289 135.964 142.311 136.262 142.328C136.355 142.334 136.44 142.338 136.513 142.342C136.561 142.344 136.605 142.346 136.646 142.347C136.646 142.345 136.646 142.343 136.646 142.34V133.374C136.646 132.508 137.347 131.806 138.213 131.806Z" fill="white"/>
<path fill-rule="evenodd" clip-rule="evenodd" d="M159.056 131.929C159.854 132.265 160.229 133.184 159.893 133.982C159.725 134.38 159.648 134.997 159.63 135.878C159.625 136.109 159.625 136.375 159.626 136.658C159.626 137.278 159.627 137.975 159.576 138.529C159.478 139.592 159.495 140.646 159.513 141.782C159.52 142.25 159.528 142.732 159.528 143.234C159.528 143.232 159.528 143.237 159.529 143.251C159.529 143.265 159.531 143.283 159.533 143.308C159.536 143.346 159.539 143.379 159.543 143.421C159.545 143.446 159.548 143.475 159.551 143.511C159.564 143.658 159.588 143.923 159.569 144.2C159.551 144.456 159.485 144.949 159.135 145.401C158.72 145.935 158.127 146.143 157.591 146.156C157.001 146.169 156.453 146.115 155.98 146.059C155.867 146.046 155.761 146.033 155.659 146.021C155.305 145.978 155.004 145.942 154.685 145.923C154.254 145.898 153.826 145.87 153.401 145.842C152.04 145.754 150.711 145.668 149.427 145.668C148.562 145.668 147.86 144.967 147.86 144.101C147.86 143.235 148.562 142.533 149.427 142.533C150.823 142.533 152.293 142.629 153.674 142.718C154.082 142.745 154.482 142.77 154.87 142.793C155.295 142.818 155.72 142.87 156.086 142.914C156.176 142.925 156.262 142.936 156.343 142.945C156.36 142.947 156.376 142.949 156.392 142.951C156.39 142.645 156.385 142.325 156.379 141.997C156.36 140.8 156.339 139.485 156.454 138.242C156.492 137.824 156.491 137.396 156.489 136.882C156.488 136.565 156.487 136.215 156.495 135.815C156.514 134.908 156.584 133.76 157.003 132.765C157.339 131.967 158.259 131.593 159.056 131.929Z" fill="white"/>
<path fill-rule="evenodd" clip-rule="evenodd" d="M158.091 96.7927C158.005 96.7995 157.92 96.8047 157.842 96.8072C157.251 96.8263 156.637 96.8215 156.063 96.817C155.823 96.8151 155.589 96.8133 155.367 96.8133C154.502 96.8133 153.8 96.1114 153.8 95.2457C153.8 94.3799 154.502 93.6781 155.367 93.6781C155.644 93.6781 155.907 93.6802 156.162 93.6822C156.705 93.6866 157.214 93.6907 157.741 93.6737C157.885 93.669 158 93.6547 158.169 93.6339C158.284 93.6196 158.424 93.6022 158.615 93.5828C158.984 93.5453 159.53 93.5061 160.097 93.632C161.031 93.8397 161.293 94.6612 161.342 94.8325C161.418 95.0979 161.425 95.3465 161.425 95.4858C161.426 95.7924 161.383 96.1296 161.344 96.3901C161.303 96.6674 161.251 96.9448 161.213 97.1487C161.176 97.35 161.165 97.4169 161.164 97.4167C161.163 97.4166 161.163 97.4135 161.164 97.4081C161.108 98.3453 161.165 99.2844 161.229 100.335C161.234 100.41 161.239 100.486 161.243 100.562C161.286 101.274 161.41 101.986 161.551 102.802C161.559 102.847 161.567 102.892 161.575 102.937C161.72 103.776 161.879 104.725 161.908 105.71C161.907 105.709 161.907 105.708 161.908 105.708C161.908 105.708 161.912 105.746 161.94 105.9C161.942 105.908 161.943 105.917 161.945 105.927C161.969 106.053 162.016 106.307 162.024 106.56C162.031 106.813 162.017 107.392 161.601 107.913C161.134 108.497 160.482 108.631 160.035 108.636C159.969 108.637 159.908 108.638 159.851 108.638C159.338 108.643 159.193 108.645 159.028 108.706C158.71 108.823 158.349 108.918 157.901 108.918C157.035 108.918 156.333 108.216 156.333 107.35C156.333 106.488 157.029 105.789 157.89 105.783C157.899 105.78 157.916 105.775 157.942 105.765C158.219 105.663 158.499 105.6 158.763 105.561C158.726 104.905 158.617 104.232 158.485 103.472C158.475 103.414 158.465 103.356 158.455 103.297C158.32 102.52 158.168 101.646 158.114 100.752C158.109 100.666 158.103 100.579 158.098 100.492C158.035 99.4706 157.965 98.3389 158.036 97.1929C158.044 97.0647 158.068 96.9267 158.078 96.8682C158.078 96.866 158.079 96.8639 158.079 96.8619C158.083 96.8399 158.087 96.8168 158.091 96.7927ZM158.29 95.4893C158.29 95.4898 158.29 95.4902 158.29 95.4907C158.289 95.4755 158.29 95.4738 158.29 95.4893Z" fill="white"/>
<path fill-rule="evenodd" clip-rule="evenodd" d="M157.557 94.2628C158.422 94.3083 159.086 95.046 159.04 95.9106C159.013 96.4368 158.979 96.9377 158.946 97.4201C158.825 99.2076 158.721 100.742 159.017 102.374C159.172 103.226 158.607 104.042 157.755 104.197C156.904 104.352 156.088 103.787 155.933 102.935C155.559 100.88 155.7 98.8558 155.828 97.0234C155.858 96.5859 155.888 96.1593 155.91 95.7458C155.955 94.8812 156.693 94.2173 157.557 94.2628Z" fill="white"/>
<path fill-rule="evenodd" clip-rule="evenodd" d="M141.485 91.0655C141.69 91.0824 141.797 91.0913 141.869 91.0913C142.735 91.0913 143.436 91.7931 143.436 92.6589C143.436 93.5246 142.735 94.2264 141.869 94.2264C141.653 94.2264 141.366 94.2022 141.143 94.1834C141.097 94.1795 141.054 94.1758 141.015 94.1727C140.813 94.1564 140.627 94.1439 140.457 94.1397C140.363 95.0814 140.325 96.1511 140.289 97.1614C140.281 97.3723 140.274 97.5807 140.266 97.7847C140.242 98.3956 140.25 98.9047 140.258 99.4774C140.26 99.6268 140.262 99.7806 140.264 99.9417C140.276 99.9406 140.289 99.9394 140.303 99.9382C140.336 99.9351 140.371 99.9317 140.408 99.9281C140.673 99.9027 141.033 99.8681 141.381 99.8681C142.247 99.8681 142.949 100.57 142.949 101.436C142.949 102.301 142.247 103.003 141.381 103.003C141.194 103.003 140.995 103.022 140.712 103.049C140.674 103.052 140.634 103.056 140.594 103.06C140.299 103.087 139.866 103.127 139.444 103.089C139.022 103.052 138.372 102.919 137.841 102.391C137.288 101.841 137.132 101.131 137.132 100.515C137.132 100.224 137.128 99.9292 137.124 99.6291C137.115 99.0024 137.106 98.3521 137.133 97.6643C137.14 97.4804 137.147 97.2856 137.154 97.0823C137.198 95.8169 137.254 94.226 137.447 92.941C137.588 92.0012 138.254 91.4857 138.805 91.2575C139.297 91.0537 139.819 91.013 140.184 91.0047C140.577 90.9958 140.969 91.0237 141.267 91.0476C141.35 91.0543 141.422 91.0603 141.485 91.0655ZM139.698 99.9632C139.698 99.9631 139.701 99.9635 139.707 99.9647C139.701 99.9639 139.698 99.9633 139.698 99.9632Z" fill="white"/>
<path fill-rule="evenodd" clip-rule="evenodd" d="M140.549 92.8042C141.411 92.8826 142.046 93.6451 141.968 94.5073C141.809 96.253 141.73 97.965 141.73 99.729C141.73 100.595 141.029 101.297 140.163 101.297C139.297 101.297 138.595 100.595 138.595 99.729C138.595 97.8693 138.678 96.0627 138.845 94.2234C138.924 93.3612 139.686 92.7258 140.549 92.8042Z" fill="white"/>
<path fill-rule="evenodd" clip-rule="evenodd" d="M49.0253 91.2767L51.9887 91.2767C52.8544 91.2767 53.5563 91.9786 53.5563 92.8443C53.5563 93.7101 52.8544 94.4119 51.9887 94.4119H49.6766C49.5968 94.7068 49.5088 94.9815 49.4277 95.2288C49.4066 95.2931 49.3861 95.3553 49.3662 95.4156C49.2549 95.7531 49.1623 96.034 49.087 96.327C48.652 98.0186 48.4797 99.8951 48.4301 101.772C48.4632 101.768 48.497 101.764 48.5316 101.76C48.914 101.713 49.312 101.652 49.7028 101.591C49.7861 101.578 49.869 101.565 49.9515 101.552L49.9563 101.552C50.3547 101.49 50.8733 101.411 51.2324 101.411C52.0982 101.411 52.8 102.112 52.8 102.978C52.8 103.844 52.0982 104.546 51.2324 104.546C51.2337 104.546 51.2344 104.546 51.2344 104.546C51.2344 104.546 51.217 104.546 51.1766 104.55C51.1311 104.553 51.0714 104.56 50.9952 104.569C50.8412 104.589 50.6525 104.617 50.4281 104.651C50.3554 104.662 50.2793 104.674 50.2004 104.686C49.8092 104.747 49.3501 104.819 48.9118 104.872C48.4071 104.934 47.8048 104.989 47.2924 104.95C47.0544 104.931 46.6679 104.883 46.2938 104.694C45.8516 104.471 45.2786 103.948 45.2786 103.079C45.2786 100.694 45.4157 98.0153 46.0506 95.5462C46.1544 95.1424 46.2844 94.7491 46.3948 94.4151C46.4133 94.359 46.4313 94.3046 46.4485 94.2521C46.576 93.8634 46.6741 93.543 46.7375 93.2259C46.7413 93.2068 46.7457 93.184 46.7507 93.1587C46.7729 93.0444 46.8054 92.8774 46.8403 92.747C46.8829 92.5873 46.9969 92.1883 47.3406 91.8416C47.7207 91.4581 48.1629 91.3492 48.4184 91.3106C48.6428 91.2767 48.8793 91.2767 49.0253 91.2767ZM47.489 101.819C47.4892 101.818 47.4944 101.819 47.5038 101.821C47.4935 101.82 47.4888 101.819 47.489 101.819Z" fill="white"/>
<path fill-rule="evenodd" clip-rule="evenodd" d="M50.313 93.9647C51.1143 94.2925 51.4981 95.2078 51.1703 96.0091C50.6193 97.3559 50.641 98.7271 50.6688 100.48C50.6752 100.888 50.682 101.315 50.682 101.768C50.682 102.634 49.9802 103.336 49.1144 103.336C48.2487 103.336 47.5468 102.634 47.5468 101.768C47.5468 101.448 47.5397 101.109 47.5322 100.755C47.4947 98.9748 47.4494 96.8243 48.2685 94.8221C48.5963 94.0208 49.5117 93.6369 50.313 93.9647Z" fill="white"/>
<path d="M91.5166 76.931C92.343 77.2737 93.1567 77.2701 94.0222 77.4122C94.4868 77.4885 94.8443 77.8239 95.2998 77.9432C95.7332 78.0567 96.0908 78.6345 95.1837 78.2834C94.5155 78.0247 93.871 77.8184 93.1676 77.6777C92.8205 77.6083 91.9754 77.5499 91.8153 77.2297" stroke="#79E05F" stroke-width="3" stroke-linecap="round"/>
<path d="M92.7101 77.3791C91.9099 77.0025 91.0625 76.483 90.1714 76.483" stroke="#79E05F" stroke-width="3" stroke-linecap="round"/>
<path d="M119.578 37.7933C122.76 37.6024 125.636 36.7922 128.788 36.7922" stroke="#A9B33B" stroke-width="3" stroke-linecap="round"/>
<path d="M154.816 49.406C157.853 50.7742 160.665 52.4093 164.026 52.4093" stroke="#A9B33B" stroke-width="3" stroke-linecap="round"/>
<path d="M78.5338 36.7922C75.2047 38.3181 71.4289 39.0202 68.3228 40.9968" stroke="#A9B33B" stroke-width="3" stroke-linecap="round"/>
<path d="M35.4871 26.3811C38.6975 26.6086 41.8812 26.7815 45.0975 26.7815" stroke="#A9B33B" stroke-width="3" stroke-linecap="round"/>
<path d="M93.8003 51.4636C101.342 47.9905 109.638 48.6805 117.682 49.5273" stroke="#A9B33B" stroke-width="3" stroke-linecap="round"/>
<path fill-rule="evenodd" clip-rule="evenodd" d="M180.203 3.1414C179.801 3.17329 179.322 3.30941 178.964 3.42544C178.74 3.49771 178.502 3.66803 178.221 4.04749C177.938 4.42979 177.705 4.88814 177.416 5.4589C177.401 5.48736 177.387 5.5161 177.372 5.54512C177.214 5.85597 177.11 6.29502 177.03 6.92513C177.008 7.09896 176.986 7.32638 176.961 7.57515C176.915 8.03009 176.862 8.55643 176.795 8.95704C176.776 9.06847 176.757 9.17844 176.739 9.28711C176.583 10.2069 176.444 11.0334 176.398 11.8571C176.383 12.1291 176.33 12.3951 176.269 12.6142C176.213 12.8137 176.119 13.0939 175.965 13.3483L175.963 13.351C175.912 13.4355 175.712 13.7657 175.315 13.9856C175.072 14.1199 174.671 14.2574 174.188 14.1519C173.71 14.0473 173.407 13.7592 173.246 13.5471C172.978 13.1939 172.921 12.8156 172.904 12.7067L172.904 12.7051C172.88 12.5483 172.872 12.3899 172.871 12.2446C172.811 12.2194 172.713 12.1922 172.579 12.1832C172.434 12.1735 172.278 12.1871 172.13 12.2241C172.12 12.2264 172.113 12.2286 172.107 12.2304C172.102 12.239 172.096 12.2518 172.088 12.2698C172.061 12.3345 172.029 12.4425 172.006 12.6077C171.983 12.7712 171.973 12.9614 171.973 13.1783C171.973 13.4127 171.96 13.685 171.948 13.927C171.946 13.9769 171.944 14.0255 171.941 14.0722C171.928 14.371 171.918 14.6491 171.925 14.9105C171.932 15.1751 171.954 15.3759 171.987 15.5199C172.006 15.5996 172.022 15.6398 172.028 15.653C172.552 16.3285 172.438 17.3017 171.769 17.8376C171.093 18.3784 170.106 18.2688 169.565 17.5928C168.894 16.7532 168.807 15.6523 168.791 14.9894C168.781 14.6096 168.795 14.2376 168.81 13.9288C168.813 13.8642 168.815 13.8037 168.818 13.7467C168.829 13.5081 168.838 13.3306 168.838 13.1783C168.838 12.5987 168.884 11.7938 169.203 11.0442C169.557 10.2094 170.247 9.46304 171.369 9.1825C172.058 9.0103 172.841 8.98876 173.577 9.1821C173.601 9.04138 173.624 8.90284 173.647 8.76685C173.666 8.65554 173.685 8.54594 173.703 8.43826C173.759 8.10047 173.787 7.81024 173.819 7.46889C173.845 7.2035 173.873 6.9072 173.92 6.53363C174.01 5.81795 174.165 4.9361 174.576 4.12635C174.598 4.08281 174.621 4.03769 174.645 3.9912C174.906 3.47438 175.253 2.78676 175.702 2.18057C176.208 1.49793 176.935 0.786706 177.999 0.44249C178.386 0.317134 179.162 0.0789383 179.956 0.0160228C180.352 -0.0154144 180.853 -0.0125893 181.354 0.132391C181.881 0.284733 182.475 0.618702 182.856 1.27408C183.29 2.02198 183.362 2.88624 183.37 3.48463C183.377 3.98652 183.336 4.51439 183.307 4.89184C183.3 4.98262 183.293 5.0647 183.288 5.13562C183.205 6.33804 182.78 7.44792 182.45 8.31146C182.436 8.34674 182.423 8.38162 182.41 8.41607C182.102 9.2205 181.881 9.83138 181.798 10.3994C181.92 10.3927 182.023 10.3928 182.099 10.3933C182.317 10.3948 182.528 10.4094 182.679 10.4199C182.857 10.4323 182.934 10.4372 182.983 10.4372C183.043 10.4372 183.105 10.437 183.168 10.4368C183.449 10.4357 183.756 10.4345 184.005 10.4534C184.307 10.4762 184.855 10.5418 185.349 10.9225C185.876 11.3282 186.07 11.8752 186.16 12.2403C186.247 12.5925 186.29 13.0074 186.326 13.3958C186.329 13.4318 186.333 13.4692 186.336 13.508C186.382 13.9941 186.448 14.6896 186.42 15.3815C186.392 16.1049 186.258 17.0714 185.691 17.8899C185.345 18.3894 185.203 18.7615 185.128 19.1325C185.043 19.5546 185.031 20.0313 185.031 20.8381C185.031 21.7039 184.329 22.4057 183.463 22.4057C182.598 22.4057 181.896 21.7039 181.896 20.8381C181.896 20.0762 181.898 19.29 182.055 18.5128C182.222 17.6845 182.549 16.9207 183.113 16.1053C183.171 16.0213 183.267 15.7776 183.288 15.2574C183.306 14.7833 183.26 14.2827 183.211 13.7607C183.209 13.736 183.206 13.7111 183.204 13.6862C183.2 13.6464 183.197 13.6083 183.193 13.572C183.128 13.5722 183.057 13.5724 182.983 13.5724C182.814 13.5724 182.627 13.5591 182.497 13.55C182.484 13.5491 182.472 13.5482 182.461 13.5475C182.304 13.5365 182.185 13.5291 182.078 13.5284C182.075 13.5284 182.072 13.5284 182.069 13.5284C182.006 13.6006 181.924 13.7015 181.806 13.851C181.797 13.8614 181.789 13.872 181.78 13.8831C181.59 14.1246 181.28 14.5178 180.863 14.8424C180.768 14.9162 180.598 15.0358 180.366 15.1207C180.132 15.2064 179.699 15.3029 179.209 15.1124C178.701 14.915 178.437 14.5288 178.317 14.2641C178.206 14.0169 178.178 13.7947 178.169 13.677C178.138 13.2834 178.241 12.8725 178.282 12.7087L178.283 12.7057C178.343 12.4656 178.419 12.2186 178.478 12.0345C178.502 11.959 178.525 11.8883 178.543 11.8316C178.548 11.818 178.552 11.8053 178.556 11.7935C178.57 11.7507 178.577 11.727 178.581 11.7159C178.583 11.707 178.584 11.7062 178.583 11.7102C178.602 11.6401 178.617 11.5442 178.621 11.3601C178.622 11.3414 178.622 11.2907 178.623 11.2225C178.624 11.0443 178.625 10.7466 178.633 10.586C178.691 9.36225 179.123 8.23282 179.458 7.3577C179.466 7.3373 179.473 7.31703 179.481 7.29691C179.852 6.3264 180.112 5.62138 180.161 4.91991C180.169 4.79934 180.178 4.68276 180.187 4.56904C180.214 4.20575 180.24 3.87154 180.235 3.52887C180.233 3.37799 180.225 3.24901 180.211 3.14078C180.209 3.14098 180.206 3.14119 180.203 3.1414ZM183.114 12.9815C183.114 12.9815 183.114 12.9824 183.115 12.9845C183.114 12.9826 183.114 12.9815 183.114 12.9815ZM181.293 13.6156C181.293 13.6158 181.293 13.6121 181.294 13.6043C181.293 13.6116 181.293 13.6155 181.293 13.6156ZM173.234 11.8182C173.234 11.8182 173.235 11.8158 173.237 11.8114C173.235 11.8161 173.234 11.8183 173.234 11.8182ZM172.117 12.2154C172.117 12.2154 172.117 12.2158 172.116 12.2166L172.117 12.2154ZM172.923 12.2726C172.923 12.2726 172.923 12.2724 172.923 12.2719L172.923 12.2726Z" fill="#EDB480"/>
<path d="M179.556 39.1596C181.474 39.1596 183.636 39.2487 186.044 39.4271L188.184 39.5609L189.321 39.6278L189.455 41.0323C189.5 41.5228 189.589 42.5929 189.723 44.2427C189.856 45.848 189.923 47.2302 189.923 48.3895C189.923 50.6636 189.745 52.9154 189.388 55.1448C189.076 57.1513 188.296 58.8457 187.047 60.228C185.799 61.6103 184.216 62.6581 182.299 63.3715C179.044 64.3525 176.034 64.843 173.269 64.843C171.129 64.843 169.189 64.5086 167.45 63.8397C163.928 62.2791 161.631 59.5592 160.561 55.6799C160.249 54.476 159.982 52.9154 159.759 50.998C159.759 51.4885 159.513 47.4978 159.023 39.0258C159.023 37.5989 159.045 36.4619 159.09 35.6147C159.179 31.6017 159.402 28.6588 159.759 26.786C160.383 23.2189 161.832 20.5881 164.106 18.8937C165.801 17.6452 168.119 16.798 171.062 16.3521C172.088 16.2184 173.135 16.1515 174.206 16.1515C178.665 16.1515 182.321 17.2885 185.175 19.5626C188.028 21.792 189.455 24.9802 189.455 29.127L189.321 31.2673V32.2036C189.009 32.2482 188.63 32.2705 188.184 32.2705C187.738 32.2705 187.337 32.2705 186.98 32.2705H183.77C182.076 32.2705 180.448 32.1813 178.887 32.003C177.817 28.3467 176.613 26.5185 175.276 26.5185C175.053 26.5185 174.808 26.4962 174.54 26.4516C174.272 26.407 174.027 26.3847 173.804 26.3847C173.091 26.3847 172.467 26.6523 171.932 27.1873C171.887 27.2319 171.731 27.767 171.463 28.7926C170.616 31.6017 170.193 35.7485 170.193 41.233C170.193 43.9529 170.282 46.2047 170.46 47.9882C170.772 50.9757 171.374 52.8708 172.266 53.6734C172.712 53.9409 173.069 54.1193 173.336 54.2084C173.827 54.253 174.406 54.2307 175.075 54.1416C175.789 54.0078 176.413 53.8294 176.948 53.6065C177.706 53.2944 178.196 52.5809 178.419 51.4662C178.553 50.9311 178.687 50.24 178.821 49.3928C178.954 48.5456 178.999 48.0328 178.954 47.8545H177.349C175.699 47.9437 174.429 47.8099 173.537 47.4532C173.448 46.5168 173.403 45.3575 173.403 43.9752V43.2395C173.403 43.0611 173.403 42.7713 173.403 42.37C173.448 41.9241 173.403 41.0992 173.269 39.8953C173.626 39.8953 174.384 39.8061 175.543 39.6278C177.327 39.3156 178.665 39.1596 179.556 39.1596Z" fill="white"/>
<path d="M143.569 57.8202C140.76 51.6669 138.909 47.4086 138.018 45.0454V57.8871C138.018 60.6516 138.04 62.5467 138.085 63.5722C136.881 63.929 135.565 64.1073 134.138 64.1073C133.693 64.1073 133.024 64.0627 132.132 63.9735C131.151 63.8844 130.438 63.8398 129.992 63.8398L126.714 63.706V58.6897C126.714 55.836 126.67 51.7784 126.581 46.5168C126.536 43.8861 126.514 39.8953 126.514 34.5446C126.514 27.3657 126.714 21.3462 127.116 16.4859C128.32 16.1738 129.657 16.0178 131.129 16.0178C132.11 16.0178 133.291 16.1069 134.674 16.2853C136.1 16.4637 137.081 16.7312 137.616 17.0879C138.241 18.2472 138.999 19.8747 139.89 21.9704C140.827 24.0215 141.719 26.0726 142.566 28.1238L145.241 34.2771C145.152 31.1558 145.107 27.4772 145.107 23.2412C145.107 19.8078 145.13 17.4446 145.174 16.1515C147.002 15.7948 148.942 15.6165 150.993 15.6165C152.732 15.6165 154.538 15.8171 156.411 16.2184V63.6391C156.277 63.6391 156.009 63.706 155.608 63.8398C155.162 64.0181 154.382 64.1073 153.267 64.1073C153.044 64.1519 151.863 64.085 149.722 63.9067C149.187 63.8621 148.496 63.8175 147.649 63.7729C146.846 63.7283 146.378 63.7283 146.244 63.7729L143.569 57.8202Z" fill="white"/>
<path d="M123.387 16.6866C123.387 21.9035 123.32 27.1651 123.187 32.4712C123.008 39.5163 122.919 45.0677 122.919 49.1253C122.919 53.8072 123.053 58.4667 123.321 63.104C122.652 63.7729 120.913 64.1073 118.104 64.1073C116.498 64.1073 115.317 64.085 114.559 64.0404L113.756 63.9735L112.552 63.9066C111.66 63.9066 110.523 64.085 109.141 64.4417C109.409 60.5624 109.542 56.4379 109.542 52.0682C109.542 50.3292 109.498 47.7653 109.409 44.3765L109.342 40.4972C109.163 35.7708 109.074 31.9361 109.074 28.9932C109.074 24.5789 109.275 20.2314 109.676 15.9508C110.256 15.8617 110.88 15.8171 111.549 15.8171C111.906 15.8171 112.396 15.8617 113.02 15.9508C113.645 15.9954 114.38 15.9954 115.228 15.9508C117.546 16.0846 119.397 16.1292 120.779 16.0846H123.387V16.6866Z" fill="white"/>
<path d="M101.544 50.9981C103.328 53.7181 104.754 56.0144 105.825 57.8872C106.939 59.7599 107.853 61.6549 108.567 63.5723H107.497C106.962 63.5723 105.758 63.6169 103.885 63.7061C102.012 63.7952 100.518 63.8398 99.4037 63.8398C98.7795 63.8398 97.8431 63.7952 96.5946 63.7061L95.4575 63.6392C92.5592 57.04 89.9731 52.0905 87.699 48.7909V50.5299C87.699 53.2945 87.8551 56.8616 88.1672 61.2313V61.1645C88.2118 61.4766 88.2341 62.0117 88.2341 62.7697C86.718 63.4831 84.221 63.8398 80.7431 63.8398L79.1379 63.7729H75.593C75.1025 63.7729 74.8573 59.7376 74.8573 51.6669C74.8573 44.3543 74.7904 37.0417 74.6566 29.729C74.5229 22.3718 74.3222 17.9574 74.0547 16.486L75.8606 16.2185C78.5359 15.8617 80.7431 15.5942 82.4821 15.4159C84.221 15.2375 86.0046 15.1483 87.8328 15.1483C89.7947 15.1483 91.4668 15.2375 92.8491 15.4159C95.4353 15.728 97.8431 16.6198 100.073 18.0912C102.347 19.5627 104.152 21.3685 105.49 23.5088C106.872 25.6491 107.564 27.8563 107.564 30.1303C107.564 32.3152 106.85 34.7007 105.423 37.2869C104.531 38.8921 103.35 40.2298 101.878 41.2999C100.407 42.3701 98.6457 43.0166 96.5946 43.2396C97.7985 45.3799 99.2031 47.6093 100.808 49.928C101.12 50.463 101.366 50.8198 101.544 50.9981ZM91.9127 33.9427C92.537 33.7643 93.0274 33.3185 93.3841 32.605C93.7409 31.8916 93.9192 31.0444 93.9192 30.0634C93.9192 28.2353 93.4733 27.0537 92.5815 26.5186C92.0019 26.1619 91.3999 25.9389 90.7757 25.8497C90.196 25.7606 89.5272 25.716 88.7692 25.716L85.8931 26.1842C85.9823 27.5218 86.0269 28.6589 86.0269 29.5952C86.0269 32.0031 86.0938 33.4745 86.2276 34.0096C86.9856 34.0988 87.922 34.1434 89.0367 34.1434C90.0622 34.1434 91.0209 34.0765 91.9127 33.9427Z" fill="white"/>
<path d="M71.8878 27.9901C72.0215 29.3723 72.0884 30.7769 72.0884 32.2038L72.0215 33.4077V34.6116C71.9323 36.083 71.8878 38.2456 71.8878 41.0993C71.8878 44.2652 71.8209 46.673 71.6871 48.3228L71.4865 50.53C71.2635 54.1417 70.3494 57.2184 68.7442 59.7599C68.0754 60.6963 67.0721 61.5212 65.7344 62.2347C64.3968 62.9481 62.9253 63.5277 61.3201 63.9736C59.6703 64.4641 57.7307 64.7094 55.5012 64.7094C54.4756 64.7094 53.7622 64.6871 53.3609 64.6425C51.176 64.4641 49.2141 63.9959 47.4751 63.2379C45.7807 62.4353 44.5322 61.276 43.7296 59.7599C42.6595 57.7534 42.0798 55.2341 41.9906 52.2021L41.8569 50.0618C41.8123 49.7051 41.79 48.9693 41.79 47.8546C41.567 44.1983 41.4556 40.698 41.4556 37.3538C41.4556 35.3027 41.5224 33.2516 41.6562 31.2005C41.79 28.971 42.169 26.8085 42.7932 24.7128C43.4621 22.5725 44.4653 20.6997 45.803 19.0945L47.2745 18.2919C50.1282 16.9096 53.2494 16.2185 56.6382 16.2185C58.7785 16.2185 60.785 16.5083 62.6578 17.088C64.5751 17.6231 66.2472 18.4257 67.6741 19.4958C69.2347 20.9227 70.2602 22.3272 70.7507 23.7095C71.2858 25.1364 71.6648 26.5632 71.8878 27.9901ZM61.5207 35.2804L61.2532 31.8025C61.164 30.554 60.8519 29.4615 60.3168 28.5252C59.8264 27.5442 59.1798 26.8531 58.3772 26.4517C58.0205 26.318 57.6638 26.2511 57.3071 26.2511C56.2369 26.2511 55.1891 26.6078 54.1635 27.3212C53.6284 27.7671 53.0934 28.4137 52.5583 29.2609C52.0678 30.0635 51.6888 30.8884 51.4213 31.7356C50.9754 33.6975 50.7524 36.1945 50.7524 39.2266C50.7524 40.7426 50.7747 41.8796 50.8193 42.6377V42.5708C50.9977 43.4626 51.1314 44.6442 51.2206 46.1156L51.2875 47.052C51.4659 49.2815 51.7111 50.9313 52.0232 52.0014V51.9345C52.4245 52.8263 53.0042 53.5174 53.7622 54.0079C54.5648 54.4538 55.412 54.6768 56.3038 54.6768C57.0172 54.6768 57.7307 54.5207 58.4441 54.2086C59.2021 53.8519 59.8486 53.3614 60.3837 52.7371C60.8296 52.1575 61.0971 51.667 61.1863 51.2657C61.3201 50.8644 61.387 50.2401 61.387 49.3929C61.387 48.6349 61.4093 48.0776 61.4539 47.7208L61.5207 46.8513L61.5876 45.5806V44.6442L61.6545 43.3734V40.163L61.5207 35.6148V35.2804Z" fill="white"/>
<path d="M35.9335 41.0992C37.6279 43.2395 38.8764 45.0231 39.679 46.45C40.4816 47.8322 40.8829 49.4597 40.8829 51.3325C40.8829 52.0905 40.816 52.9154 40.6822 53.8072C39.9688 57.7756 38.1183 60.4956 35.1309 61.967C32.1434 63.3939 28.3087 64.1073 23.6268 64.1073C22.2446 64.1073 17.9194 63.8398 10.6513 63.3047C10.5176 59.9605 10.4507 54.6098 10.4507 47.2526C10.4507 39.2711 10.473 32.0699 10.5176 25.6491V16.9541C14.4414 15.8394 18.2092 15.282 21.821 15.282C26.8595 15.282 30.9841 16.3968 34.1945 18.6262C37.4495 20.8111 39.077 24.4228 39.077 29.4614C39.077 32.7165 37.94 36.2613 35.6659 40.096V40.0291C35.5767 40.2075 35.5322 40.3412 35.5322 40.4304C35.5322 40.5642 35.6659 40.7648 35.9335 41.0324V41.0992ZM28.5093 29.4614C27.8405 28.2129 26.9933 27.4549 25.9678 27.1874C25.2543 27.0982 24.697 27.0536 24.2957 27.0536C23.1363 26.9644 22.2668 26.853 21.6872 26.7192C21.821 27.4772 21.8878 28.6365 21.8878 30.1972V32.605C21.8878 33.7197 21.9101 34.5892 21.9547 35.2135H23.8944C25.8563 35.2135 27.194 34.5446 27.9074 33.2069C28.4871 32.1368 28.7769 31.2673 28.7769 30.5985C28.7769 30.1972 28.6877 29.8182 28.5093 29.4614ZM28.5093 49.9948C28.5093 49.2368 28.3756 48.4119 28.108 47.5201V47.587C27.8851 47.0965 27.573 46.6506 27.1717 46.2493C26.7704 45.848 26.3691 45.6028 25.9678 45.5136C25.2543 45.3352 24.2065 45.2015 22.8242 45.1123C22.6904 45.1123 22.5344 45.1346 22.356 45.1792C22.2223 45.1792 22.0662 45.1569 21.8878 45.1123C21.4419 46.985 21.219 48.6125 21.219 49.9948C21.219 51.6 21.4642 52.8485 21.9547 53.7403C23.5599 53.7849 24.8084 53.7403 25.7002 53.6065C26.6366 53.4282 27.4169 52.96 28.0412 52.202C28.3533 51.7561 28.5093 51.0204 28.5093 49.9948Z" fill="white"/>
<path fill-rule="evenodd" clip-rule="evenodd" d="M54.3708 34.1434C54.3775 34.1467 54.3837 34.1496 54.3893 34.1523C54.9451 34.4181 55.7235 35.0732 55.6001 36.1655C55.5031 37.024 54.885 37.5192 54.5231 37.7278C54.1103 37.9657 53.5317 38.1349 52.9099 38.0236C52.9007 38.0219 52.8915 38.0202 52.8824 38.0185C52.7664 38.0289 52.6415 38.0282 52.5092 38.0109C51.9972 37.9439 51.623 37.6629 51.3966 37.3718C51.1956 37.1135 51.1104 36.8528 51.0713 36.7017C51.0288 36.5374 51.0125 36.3891 51.0056 36.2814C50.9918 36.0679 51.0062 35.8744 51.021 35.7487C51.0275 35.6934 51.0398 35.6019 51.0625 35.5048C51.0682 35.4804 51.082 35.423 51.1055 35.3531C51.1164 35.3205 51.141 35.2505 51.1819 35.1662C51.2026 35.1236 51.2385 35.0543 51.2923 34.9745C51.3384 34.9059 51.444 34.7592 51.6223 34.6186C51.6447 34.6009 51.6705 34.5817 51.6996 34.5616C52.1118 34.0833 52.6919 33.8194 53.3322 33.8509C53.8124 33.8745 54.2205 34.071 54.3708 34.1434ZM51.0279 35.9147C51.0272 35.8958 51.0269 35.8768 51.0269 35.8577C51.0269 35.858 51.0269 35.8585 51.0269 35.8592C51.0268 35.8652 51.0267 35.8849 51.0279 35.9147Z" fill="#E0D043"/>
<path fill-rule="evenodd" clip-rule="evenodd" d="M57.3332 33.6805C58.0092 33.1396 58.9957 33.2493 59.5366 33.9253C59.6587 34.078 59.7532 34.2475 59.8223 34.3923C60.1879 34.7791 60.4003 35.2782 60.4064 35.8162C60.4131 36.4011 60.1754 36.9162 59.841 37.2785C59.5179 37.6284 58.9552 37.984 58.2318 37.9273C57.4247 37.8641 56.8864 37.3315 56.6192 36.7969C56.4593 36.4772 56.3701 36.1259 56.3785 35.7543C56.3865 35.3982 56.4828 35.1157 56.5536 34.9417C56.5879 34.8575 56.623 34.7832 56.6424 34.742C56.6446 34.7375 56.6466 34.7332 56.6485 34.7293C56.6517 34.7223 56.6546 34.7162 56.6572 34.7108C56.7258 34.3719 56.9016 34.0772 57.1445 33.8587C57.2014 33.7952 57.2644 33.7355 57.3332 33.6805Z" fill="#E0D043"/>
<path fill-rule="evenodd" clip-rule="evenodd" d="M58.9853 41.6107C59.6898 42.1139 59.8529 43.093 59.3497 43.7975C59.2488 43.9388 59.1499 44.1119 59.019 44.3575C58.9994 44.3944 58.9784 44.4342 58.9562 44.4762C58.8471 44.6828 58.7092 44.944 58.5602 45.1864C58.1787 45.8075 57.5725 46.5702 56.4864 46.9387C55.3707 47.3173 54.4215 46.8154 53.92 46.4625C53.4236 46.1131 53.0084 45.6589 52.7844 45.4139C52.772 45.4003 52.7602 45.3874 52.749 45.3752C52.1639 44.737 52.2071 43.7454 52.8453 43.1603C53.4835 42.5753 54.4751 42.6184 55.0601 43.2566L55.0661 43.2632C55.1875 43.3956 55.2974 43.5156 55.4161 43.6322C55.5084 43.7229 55.5903 43.7959 55.6619 43.852C55.7232 43.7905 55.7963 43.696 55.8888 43.5454C55.9796 43.3977 56.0596 43.2465 56.1662 43.0451C56.1929 42.9946 56.2214 42.9409 56.252 42.8833C56.3904 42.6236 56.5699 42.2952 56.7985 41.9752C57.3017 41.2707 58.2808 41.1075 58.9853 41.6107Z" fill="#E0D043"/>
<path fill-rule="evenodd" clip-rule="evenodd" d="M90.4322 29.1567C90.4073 29.1368 90.412 29.1373 90.4341 29.1582C90.4335 29.1577 90.4328 29.1572 90.4322 29.1567ZM91.5213 30.6845C91.5247 30.9485 91.4613 31.217 91.3239 31.4644C90.9034 32.2212 89.9491 32.4939 89.1923 32.0735C89.1897 32.072 89.1862 32.0701 89.1818 32.0677C89.1057 32.0258 88.7702 31.8411 88.4786 31.6088C88.3534 31.509 88.0548 31.2631 87.8553 30.8892C87.7461 30.6845 87.5993 30.316 87.6571 29.85C87.7208 29.336 88.001 28.9533 88.3024 28.7165C88.4738 28.5818 88.6387 28.5107 88.6848 28.4909L88.6859 28.4904C88.7097 28.4801 88.7331 28.4706 88.7557 28.4618C88.7719 28.454 88.7876 28.4467 88.8027 28.4398C89.2885 28.1118 89.9143 28.0872 90.4199 28.3586C90.538 28.3999 90.6669 28.4583 90.7961 28.5414C91.1542 28.7716 91.3292 29.0786 91.4076 29.2479C91.4922 29.4303 91.5312 29.597 91.5512 29.7091C91.5914 29.9346 91.59 30.1457 91.578 30.3058C91.5694 30.4197 91.5522 30.5492 91.5213 30.6845Z" fill="#A04AC8"/>
<path fill-rule="evenodd" clip-rule="evenodd" d="M25.5025 29.6264C24.8829 29.2427 24.0587 29.3334 23.5388 29.884C23.4602 29.9671 23.3731 30.0691 23.292 30.1892C23.2139 30.3047 23.1146 30.4761 23.0481 30.6966C22.98 30.9225 22.9331 31.2476 23.031 31.6144C23.1334 31.998 23.3577 32.2896 23.6045 32.4837C23.8327 32.6633 24.0619 32.7474 24.2156 32.7892C24.3746 32.8324 24.5164 32.8473 24.6219 32.8524C24.8295 32.8623 25.0157 32.8392 25.155 32.8127C25.2962 32.7859 25.4557 32.7428 25.6142 32.6771C25.6915 32.645 25.8053 32.5925 25.9282 32.5117C25.9908 32.4706 26.0753 32.4093 26.1647 32.3244C26.2498 32.2434 26.3766 32.106 26.4822 31.9058C26.5923 31.6971 26.6946 31.388 26.6593 31.0139C26.6231 30.6305 26.456 30.326 26.2722 30.1161C26.1011 29.9208 25.9185 29.8081 25.8004 29.7467C25.6846 29.6865 25.5797 29.6495 25.5025 29.6264Z" fill="#A04AC8"/>
<path fill-rule="evenodd" clip-rule="evenodd" d="M25.6497 48.9497C25.9352 49.3815 26.0806 50.0116 25.8122 50.6558C25.6832 50.9653 25.4546 51.2408 25.1416 51.4243C24.8493 51.5956 24.565 51.6395 24.3691 51.6453C24.0101 51.6557 23.7349 51.5456 23.6205 51.4953C23.3563 51.379 23.1331 51.2088 22.9682 51.0403C22.8813 50.9515 22.7648 50.8168 22.6639 50.6368C22.5785 50.4846 22.4027 50.1217 22.4533 49.6386C22.4725 49.4557 22.5202 49.2874 22.5892 49.1355C22.8238 48.5295 23.3498 48.2234 23.7853 48.1364C24.174 48.0587 24.4971 48.1377 24.6737 48.1973C25.0426 48.3219 25.4027 48.5762 25.6497 48.9497Z" fill="#A04AC8"/>
<path d="M23.8406 68.4338C24.1936 70.0941 24.4387 71.7755 24.8109 73.4318C25.1104 74.7651 25.542 76.0368 25.9347 77.3408C26.2198 78.2876 26.3893 79.3815 26.4792 80.3703" stroke="white" stroke-linecap="round"/>
<path d="M28.929 67.3658C29.3042 68.4708 29.4274 69.7341 29.5921 70.8839C29.8455 72.6528 29.9108 74.4928 30.4437 76.21C30.7563 77.2174 31.1827 78.1795 31.4594 79.2011C31.5216 79.4308 31.4997 79.6089 31.6304 79.8049" stroke="white" stroke-linecap="round"/>
<path d="M17.9333 73.4598C18.7862 73.189 19.6614 73.0126 20.5405 72.849C23.2725 72.3405 26.0298 71.9816 28.774 71.5471C30.6377 71.2521 32.4864 70.9526 34.3095 70.4582C35.2772 70.1958 36.2272 69.895 37.2203 69.7532" stroke="white" stroke-linecap="round"/>
<path d="M18.8132 78.2343C19.5344 78.1687 20.2595 77.9416 20.9842 77.8573C22.824 77.6432 24.6501 77.495 26.4638 77.093C27.7565 76.8064 29.0113 76.4 30.2716 76.0005C31.8152 75.5113 33.3617 75.0849 34.966 74.8557C35.9816 74.7106 37.1873 74.6579 38.1002 74.1507" stroke="white" stroke-linecap="round"/>
<path d="M33.0845 71.4122C32.3986 71.5151 30.41 72.0813 30.6562 73.1049C30.8564 73.9372 31.7956 74.6873 32.6237 74.8153C33.2315 74.9093 33.8727 74.5496 34.3253 74.1772C35.1186 73.5245 34.5862 72.4618 33.9796 71.8553C33.3446 71.2203 32.5846 71.586 31.8881 71.8907" stroke="#9F4AC8" stroke-linecap="round"/>
<path d="M19.2439 73.1219C20.4946 73.9509 21.6462 74.9313 22.8686 75.8026C23.1924 76.0334 23.5213 76.2393 23.8689 76.4305C23.949 76.4746 24.0128 76.5268 24.0768 76.5907" stroke="#79E05F" stroke-linecap="round"/>
<path d="M19.3601 77.1752C19.6772 76.8581 20.0001 76.5459 20.3063 76.2182C20.7412 75.753 21.0558 75.2006 21.4821 74.7328C21.7636 74.4239 22.1336 74.2169 22.4153 73.91C22.6076 73.7005 22.7648 73.4504 22.8982 73.1998C22.9855 73.0358 23.1149 72.8316 23.2966 72.7711" stroke="#79E05F" stroke-linecap="round"/>
<path d="M126.161 73.087C126.377 70.7194 130.456 71.752 129.549 74.1405C129.079 75.3785 127.872 76.3884 126.963 77.3011C126.462 77.8053 125.934 78.2827 125.431 78.7856C125.189 79.0281 125.127 79.1142 125.527 79.1448C127.631 79.3056 129.761 78.9054 131.872 78.9054" stroke="white" stroke-linecap="round"/>
<path d="M135.428 72.7637C135.161 74.293 134.903 75.8056 134.889 77.3609C134.888 77.4021 134.889 77.9691 134.889 77.6123" stroke="white" stroke-linecap="round"/>
<path d="M133.597 75.4573C134.328 74.9869 135.654 75.0263 136.506 75.0263" stroke="white" stroke-linecap="round"/>
<path d="M139.522 71.6863C140.195 71.6302 140.666 71.5123 141.348 71.7701C142.29 72.1264 142.929 72.8608 142.515 73.8951C142.278 74.4875 141.764 74.9027 141.162 75.0863C140.97 75.1449 140.782 75.1029 141.114 75.206C141.685 75.383 142.269 75.542 142.826 75.7568C143.498 76.0156 143.533 76.524 143.664 77.1635C143.787 77.7583 143.25 77.9737 142.736 78.0913C141.898 78.2835 140.373 78.4931 139.63 77.9357" stroke="white" stroke-linecap="round"/>
<path d="M147.064 74.2722C147.905 74.0765 148.877 74.0645 149.65 73.7335" stroke="white" stroke-linecap="round"/>
<path d="M146.741 76.3194C147.751 76.091 148.83 75.9215 149.758 75.4574" stroke="white" stroke-linecap="round"/>
<path d="M152.236 71.1475C152.596 71.1235 156.062 70.616 156.109 71.0218C156.161 71.4581 156.058 71.9557 155.99 72.3806C155.811 73.495 155.609 74.6078 155.421 75.7208C155.308 76.3906 155.251 77.1991 154.99 77.8339C154.92 78.0037 154.93 77.6396 154.93 77.6124" stroke="#DE43D8" stroke-linecap="round"/>
<path d="M153.206 75.2419C153.785 74.8695 154.691 74.9186 155.361 74.9186" stroke="#DE43D8" stroke-linecap="round"/>
<path d="M158.809 71.363C158.967 70.9283 159.911 70.3799 160.341 70.7046C161.118 71.2915 160.544 72.2035 160.209 72.8476C159.967 73.3136 159.344 75.1216 159.898 75.5772C160.282 75.8925 161.09 75.4528 161.502 75.3497" stroke="#DE43D8" stroke-linecap="round"/>
<path d="M160.75 78.4744C160.75 79.1534 161.155 78.7654 161.426 78.3068C161.849 77.589 160.965 77.396 160.965 78.1511" stroke="#DE43D8" stroke-linecap="round"/>
</svg>
