<svg width="192" height="140" viewBox="0 0 192 140" fill="none" xmlns="http://www.w3.org/2000/svg">
<path d="M37.8086 115.892C40.4243 115.835 42.5121 115.253 44.8972 114.359" stroke="#DE43D8" stroke-width="3" stroke-linecap="round"/>
<path d="M65.9707 119.915C70.1419 118.847 74.5165 118.514 78.6152 117.233" stroke="#DE43D8" stroke-width="3" stroke-linecap="round"/>
<path d="M99.8809 102.098C99.9955 101.639 101.8 101.937 102.041 101.97C104.154 102.255 106.256 102.997 108.119 104.013" stroke="#DE43D8" stroke-width="3" stroke-linecap="round"/>
<path d="M121.914 112.635C125.467 112.635 129.071 112.784 132.611 112.411C134.143 112.25 135.135 111.963 136.283 111.102" stroke="#DE43D8" stroke-width="3" stroke-linecap="round"/>
<path d="M150.076 108.803C154.084 107.955 158.308 107.909 162.359 107.228C166.77 106.486 171.155 105.574 175.557 104.78" stroke="#DE43D8" stroke-width="3" stroke-linecap="round"/>
<path fill-rule="evenodd" clip-rule="evenodd" d="M85.6973 73.6198C85.8 72.7977 86.5497 72.2147 87.3718 72.3174C88.8136 72.4976 90.124 73.0336 91.2422 73.4909C91.3697 73.5431 91.4947 73.5942 91.6171 73.6437M91.5223 76.8029C91.4931 76.7889 91.4591 76.7736 91.4198 76.757C91.2926 76.7035 91.1479 76.6524 90.9873 76.5984C90.9611 76.5896 90.9302 76.5793 90.8981 76.5686C90.8473 76.5517 90.7935 76.5337 90.7509 76.5192C90.6777 76.4943 90.5832 76.4615 90.4933 76.4252C90.3723 76.3763 90.2539 76.3282 90.1378 76.281C88.9619 75.8032 88.0245 75.4223 86.9997 75.2942C86.1776 75.1915 85.5945 74.4418 85.6973 73.6198" fill="#79E05F"/>
<path fill-rule="evenodd" clip-rule="evenodd" d="M92.9985 69C93.827 69 94.4985 69.6716 94.4985 70.5C94.4985 71.159 94.3976 71.7889 94.3168 72.2935C94.3156 72.3014 94.3143 72.3092 94.313 72.3171C94.2255 72.8635 94.1609 73.2777 94.1565 73.6828C94.1531 73.9886 94.1893 74.2801 94.2517 74.6253C94.2691 74.7211 94.2932 74.8433 94.3201 74.9794C94.3733 75.2493 94.4375 75.5742 94.4811 75.8577C94.6071 76.6765 94.0454 77.4423 93.2266 77.5683C92.4078 77.6943 91.6419 77.1326 91.516 76.3138C91.4791 76.0744 91.4421 75.8896 91.3998 75.6787C91.3697 75.5285 91.3369 75.3651 91.2997 75.1593C91.2209 74.7239 91.1504 74.2239 91.1566 73.6502C91.1636 73.0094 91.2622 72.3952 91.3414 71.9015C91.3445 71.8817 91.3477 71.8621 91.3508 71.8427C91.4374 71.3016 91.4985 70.8934 91.4985 70.5C91.4985 69.6716 92.1701 69 92.9985 69Z" fill="#79E05F"/>
<path fill-rule="evenodd" clip-rule="evenodd" d="M98.1766 76.486C98.1459 76.4882 98.1152 76.4904 98.0843 76.4926C98.0133 76.4977 97.9431 76.5027 97.8737 76.5076C96.6845 76.5916 95.7278 76.6591 94.9883 76.9953C94.2341 77.3381 93.3448 77.0046 93.002 76.2505C92.6592 75.4963 92.9927 74.607 93.7469 74.2642C95.0096 73.6902 96.5105 73.5908 97.5657 73.5209C97.6721 73.5139 97.7739 73.5072 97.8705 73.5003C97.9612 73.4938 98.0557 73.4867 98.1536 73.4793C99.338 73.3903 101.019 73.264 102.48 73.7507C103.265 74.0127 103.69 74.8622 103.428 75.6481C103.166 76.434 102.317 76.8588 101.531 76.5968C100.665 76.308 99.5533 76.3875 98.1766 76.486Z" fill="#79E05F"/>
<path fill-rule="evenodd" clip-rule="evenodd" d="M93.0467 75.9934C93.5384 75.3267 94.4775 75.1847 95.1442 75.6764C95.471 75.9173 95.7711 76.1477 96.0562 76.3667C96.7885 76.9289 97.4222 77.4155 98.157 77.8112C98.584 78.0411 98.9763 78.2129 99.42 78.4072C99.7058 78.5323 100.013 78.6669 100.364 78.8323C101.114 79.185 101.436 80.0786 101.083 80.8282C100.73 81.5778 99.8366 81.8995 99.0871 81.5467C98.8862 81.4522 98.6461 81.3462 98.387 81.2319C97.8579 80.9983 97.2496 80.7298 96.7347 80.4526C95.7679 79.932 94.8535 79.2291 94.0658 78.6237C93.8186 78.4336 93.5838 78.2531 93.3638 78.0909C92.697 77.5993 92.5551 76.6602 93.0467 75.9934Z" fill="#79E05F"/>
<path fill-rule="evenodd" clip-rule="evenodd" d="M93.6271 76.3236C94.1253 76.9855 93.9926 77.9259 93.3307 78.4241C91.7475 79.6157 90.0747 80.3986 88.1309 80.8305C87.9685 80.8666 87.7933 80.8915 87.6799 80.9076C87.6695 80.9091 87.6597 80.9105 87.6504 80.9118C87.5421 80.9273 87.4658 80.9389 87.4037 80.9507C86.9066 81.4097 86.1427 81.4875 85.5548 81.0956C84.8655 80.6361 84.6793 79.7048 85.1388 79.0155C85.6179 78.2968 86.3919 78.1014 86.7075 78.0315C86.9032 77.9882 87.0945 77.9608 87.2226 77.9425L87.2255 77.942C87.3804 77.9199 87.4408 77.9107 87.4801 77.902C88.9959 77.5651 90.2772 76.9676 91.5266 76.0272C92.1884 75.529 93.1289 75.6617 93.6271 76.3236Z" fill="#79E05F"/>
<path fill-rule="evenodd" clip-rule="evenodd" d="M191.299 91.222C191.561 92.0079 191.136 92.8574 190.35 93.1194C189.858 93.2836 189.38 93.467 188.864 93.6653C188.58 93.7745 188.284 93.8883 187.967 94.0057C187.125 94.3181 186.195 94.6324 185.245 94.8052C184.43 94.9534 183.649 94.4127 183.501 93.5977C183.353 92.7826 183.893 92.0017 184.708 91.8535C185.391 91.7294 186.12 91.491 186.924 91.193C187.169 91.102 187.43 91.0019 187.699 90.8987C188.257 90.6845 188.849 90.4575 189.402 90.2733C190.187 90.0113 191.037 90.4361 191.299 91.222Z" fill="#17691B"/>
<path fill-rule="evenodd" clip-rule="evenodd" d="M185.149 83.0105C185.823 83.492 185.979 84.4288 185.498 85.1029C184.805 86.0729 184.009 86.8155 183.251 87.4607C182.977 87.6944 182.72 87.9059 182.473 88.1091C181.999 88.4991 181.561 88.8586 181.109 89.2867C180.507 89.856 179.558 89.8296 178.988 89.2278C178.419 88.626 178.446 87.6766 179.047 87.1073C179.574 86.6093 180.15 86.1347 180.668 85.7077C180.895 85.5208 181.111 85.3431 181.306 85.1764C181.993 84.5918 182.574 84.035 183.057 83.3592C183.538 82.6851 184.475 82.529 185.149 83.0105Z" fill="#17691B"/>
<path fill-rule="evenodd" clip-rule="evenodd" d="M173.078 78.2986C173.906 78.2986 174.578 78.9702 174.578 79.7986C174.578 81.0858 174.422 82.4314 174.279 83.6686C174.213 84.2389 174.15 84.7862 174.106 85.2942C174.034 86.1195 173.307 86.7304 172.481 86.6586C171.656 86.5868 171.045 85.8596 171.117 85.0343C171.178 84.3383 171.253 83.698 171.324 83.085C171.457 81.9557 171.578 80.9192 171.578 79.7986C171.578 78.9702 172.25 78.2986 173.078 78.2986Z" fill="#17691B"/>
<path fill-rule="evenodd" clip-rule="evenodd" d="M157.727 79.9686C158.277 79.3494 159.225 79.2936 159.844 79.844C160.956 80.8326 162.223 81.6334 163.612 82.5037C163.639 82.5204 163.666 82.5372 163.693 82.554C165.025 83.3885 166.472 84.2951 167.77 85.438C168.392 85.9852 168.453 86.9331 167.906 87.555C167.358 88.1769 166.41 88.2374 165.789 87.6901C164.678 86.7128 163.412 85.9185 162.019 85.0458L162.008 85.0385C160.653 84.1898 159.177 83.2646 157.851 82.0862C157.232 81.5358 157.176 80.5877 157.727 79.9686Z" fill="#17691B"/>
<path fill-rule="evenodd" clip-rule="evenodd" d="M154.578 88.3694C154.741 87.5571 155.531 87.0303 156.343 87.1927C156.907 87.3056 157.513 87.5075 158.009 87.673C158.138 87.7158 158.259 87.7563 158.371 87.7921C158.994 87.9926 159.432 88.0968 159.782 88.0968C160.61 88.0968 161.282 88.7683 161.282 89.5968C161.282 90.4252 160.61 91.0968 159.782 91.0968C158.923 91.0968 158.094 90.8542 157.452 90.648C157.268 90.5887 157.099 90.5326 156.942 90.4804C156.481 90.3274 156.118 90.2072 155.755 90.1345C154.943 89.972 154.416 89.1818 154.578 88.3694Z" fill="#17691B"/>
<path fill-rule="evenodd" clip-rule="evenodd" d="M189.465 110.462C189.666 111.266 189.177 112.08 188.374 112.281C188.192 112.327 187.999 112.378 187.797 112.431C186.786 112.699 185.55 113.026 184.277 113.026C183.449 113.026 182.777 112.354 182.777 111.526C182.777 110.697 183.449 110.026 184.277 110.026C185.125 110.026 185.911 109.821 186.906 109.561C187.14 109.5 187.386 109.436 187.646 109.371C188.45 109.17 189.264 109.659 189.465 110.462Z" fill="#17691B"/>
<path fill-rule="evenodd" clip-rule="evenodd" d="M181.64 116.891C182.413 116.594 183.281 116.98 183.578 117.753C183.847 118.451 184.371 119.027 185.169 119.899C185.897 120.693 186.854 121.742 187.334 123.183C187.596 123.969 187.171 124.818 186.385 125.08C185.599 125.342 184.75 124.917 184.488 124.131C184.235 123.374 183.717 122.755 182.956 121.924C182.912 121.876 182.867 121.827 182.821 121.777C182.143 121.04 181.258 120.078 180.778 118.83C180.481 118.057 180.866 117.189 181.64 116.891Z" fill="#17691B"/>
<path fill-rule="evenodd" clip-rule="evenodd" d="M177.523 125.519C177.836 125.121 177.94 124.573 177.749 124.063C177.458 123.288 176.594 122.895 175.818 123.186C175.435 123.329 175.194 123.58 175.062 123.751C174.927 123.927 174.841 124.103 174.787 124.234C174.678 124.492 174.612 124.77 174.567 124.999C174.475 125.471 174.419 126.042 174.378 126.566C174.353 126.875 174.33 127.217 174.31 127.531C174.296 127.736 174.283 127.929 174.271 128.093C174.255 128.318 174.239 128.507 174.222 128.659C174.214 128.734 174.206 128.793 174.199 128.837C174.193 128.877 174.189 128.894 174.189 128.894C174.189 128.894 174.189 128.893 174.19 128.892C173.989 129.696 174.477 130.51 175.281 130.711C176.085 130.912 176.899 130.423 177.1 129.62C177.19 129.259 177.233 128.733 177.263 128.312C177.279 128.098 177.293 127.891 177.306 127.683C177.325 127.396 177.344 127.109 177.368 126.803C177.409 126.29 177.455 125.865 177.512 125.573C177.516 125.553 177.519 125.535 177.523 125.519Z" fill="#17691B"/>
<path fill-rule="evenodd" clip-rule="evenodd" d="M163.003 122.308C163.748 122.67 164.059 123.567 163.697 124.312C163.459 124.801 163.245 125.31 163.021 125.854C162.981 125.951 162.941 126.05 162.9 126.15C162.717 126.597 162.524 127.069 162.318 127.532C161.982 128.289 161.095 128.63 160.338 128.294C159.581 127.957 159.24 127.071 159.577 126.314C159.763 125.896 159.935 125.475 160.116 125.031C160.159 124.927 160.202 124.821 160.246 124.714C160.473 124.162 160.717 123.58 160.998 123.001C161.36 122.256 162.258 121.946 163.003 122.308Z" fill="#17691B"/>
<path fill-rule="evenodd" clip-rule="evenodd" d="M94.0254 75.4978C94.8538 75.4978 95.5254 76.1694 95.5254 76.9978C95.5254 77.5422 95.5776 78.1062 95.6468 78.7332C95.6585 78.8398 95.6709 78.9491 95.6835 79.0606C95.7422 79.5803 95.8064 80.1476 95.8395 80.7096C95.8573 81.0127 95.8665 81.2732 95.8748 81.5073C95.8936 82.0419 95.9076 82.4384 96.0085 82.8894C96.0205 82.943 96.0306 82.9806 96.0457 83.0372C96.0571 83.0798 96.0714 83.1332 96.0915 83.2124C96.1275 83.3539 96.1783 83.5661 96.2019 83.8022C96.2843 84.6266 95.6829 85.3616 94.8586 85.4441C94.0343 85.5265 93.2992 84.9251 93.2168 84.1008C93.2169 84.1017 93.2158 84.0909 93.2104 84.0641C93.205 84.0371 93.1969 84.0021 93.1843 83.9527C93.1754 83.9177 93.1674 83.8874 93.1577 83.8509C93.1521 83.8297 93.1459 83.8064 93.1386 83.7788C93.1214 83.713 93.1003 83.6312 93.0809 83.5443C92.9142 82.799 92.8866 82.0004 92.8652 81.3796C92.8589 81.1978 92.8532 81.0312 92.8446 80.8857C92.8168 80.412 92.7638 79.9423 92.7056 79.4266C92.6922 79.3077 92.6786 79.1864 92.6648 79.062C92.5942 78.4217 92.5254 77.7185 92.5254 76.9978C92.5254 76.1694 93.197 75.4978 94.0254 75.4978Z" fill="#79E05F"/>
<path fill-rule="evenodd" clip-rule="evenodd" d="M8.04453 98.7783C9.42562 98.1205 11.163 97.92 12.3037 98.0626C13.1257 98.1654 13.7088 98.9151 13.6061 99.7371C13.5033 100.559 12.7536 101.142 11.9316 101.039C11.3239 100.964 10.1673 101.09 9.33449 101.487C8.9287 101.68 8.7511 101.866 8.69022 101.969C8.68952 101.971 8.68878 101.972 8.688 101.973C8.66486 102.012 8.61003 102.103 8.71224 102.386C8.74676 102.482 8.87025 102.67 9.23205 102.903C9.56062 103.116 9.97191 103.291 10.3828 103.43C10.4049 103.434 10.4325 103.438 10.4663 103.443C10.4954 103.448 10.5304 103.453 10.5683 103.459C10.6568 103.472 10.7615 103.488 10.8469 103.502C10.9097 103.512 10.9848 103.525 11.0553 103.539C11.0896 103.546 11.1393 103.557 11.1939 103.572C11.1948 103.572 11.1959 103.572 11.1972 103.572C11.2268 103.58 11.3728 103.619 11.5316 103.702C11.5326 103.703 11.534 103.704 11.5358 103.705C11.5836 103.729 11.915 103.898 12.1382 104.284C12.2887 104.544 12.4077 104.94 12.2972 105.393C12.1951 105.811 11.9467 106.069 11.795 106.194C11.5383 106.407 11.2754 106.476 11.2231 106.49C11.2214 106.49 11.2199 106.491 11.2186 106.491C11.1269 106.516 11.0508 106.527 11.0115 106.532C10.875 106.55 10.7351 106.551 10.6623 106.551C8.33377 106.551 5.85805 107.418 3.35749 108.34C3.3356 108.348 3.27938 108.375 3.20889 108.436C3.13986 108.495 3.0822 108.564 3.04356 108.629C3.02898 108.654 3.0192 108.674 3.0127 108.689C3.36475 109.377 4.19847 109.914 5.31399 110.21C6.83982 110.615 7.93138 110.867 8.92699 110.634C9.1039 110.573 9.26774 110.519 9.3752 110.485C9.4037 110.476 9.43629 110.466 9.4677 110.457C9.48253 110.453 9.50676 110.446 9.5349 110.439C9.54876 110.436 9.57214 110.43 9.60083 110.424L9.60137 110.424C9.61975 110.421 9.68784 110.407 9.77527 110.399C9.81097 110.396 9.92349 110.387 10.0664 110.402C10.1364 110.409 10.2793 110.429 10.4482 110.494C10.6028 110.554 10.9401 110.715 11.1805 111.101C11.4584 111.548 11.4396 112.018 11.3384 112.342C11.252 112.618 11.1076 112.798 11.0437 112.872C10.9132 113.024 10.7818 113.113 10.7493 113.135L10.7478 113.136C10.6612 113.195 10.5863 113.232 10.5686 113.24L10.5672 113.241C10.5381 113.255 10.5139 113.266 10.5001 113.272C10.4521 113.293 10.4046 113.311 10.3803 113.321C10.1864 113.394 9.99257 113.456 9.79933 113.507C9.65037 113.559 9.49853 113.614 9.37137 113.664C9.26737 113.704 9.21579 113.727 9.20048 113.733C8.97994 113.876 8.75377 114.073 8.46779 114.347C8.40744 114.405 8.34128 114.47 8.27056 114.539C8.02593 114.778 7.72684 115.07 7.42547 115.321C7.099 115.593 6.79496 115.887 6.62045 116.159C6.57708 116.226 6.55211 116.274 6.53806 116.307C6.57132 116.352 6.62979 116.414 6.73531 116.491C6.90304 116.614 7.12772 116.732 7.43293 116.869C8.78658 117.476 10.1694 117.97 11.4581 118.095C12.0161 118.149 12.6388 118.126 13.1518 117.989C13.6711 117.85 13.9023 117.647 13.9993 117.477C14.4103 116.758 15.3266 116.508 16.0459 116.919C16.7652 117.33 17.0151 118.246 16.6041 118.965C15.9634 120.087 14.8786 120.632 13.9273 120.887C12.9697 121.143 11.9673 121.158 11.1691 121.081C9.38853 120.909 7.64889 120.253 6.20502 119.606C5.56616 119.319 4.34462 118.749 3.77296 117.491C3.23188 116.301 3.66565 115.207 4.09761 114.535C4.42493 114.027 4.8475 113.597 5.19756 113.282C5.02432 113.237 4.85644 113.193 4.69454 113.15C4.64408 113.136 4.59421 113.123 4.54493 113.11C3.04024 112.711 1.13437 111.791 0.253758 109.874C-0.22413 108.834 0.045646 107.801 0.464759 107.096C0.877873 106.401 1.54891 105.809 2.32037 105.525C3.53119 105.079 4.8831 104.584 6.30229 104.201C6.13844 103.964 5.99677 103.699 5.89057 103.405C5.5104 102.353 5.58885 101.323 6.10612 100.445C6.584 99.6351 7.34336 99.1122 8.04453 98.7783ZM10.705 103.55C10.7051 103.55 10.7037 103.55 10.7007 103.55L10.705 103.55ZM6.52166 116.36C6.52076 116.36 6.52099 116.354 6.52506 116.341C6.5246 116.353 6.52256 116.359 6.52166 116.36ZM10.3217 103.419C10.3221 103.419 10.3276 103.42 10.3371 103.422C10.326 103.42 10.3212 103.419 10.3217 103.419Z" fill="#EDB480"/>
<path fill-rule="evenodd" clip-rule="evenodd" d="M43.753 124.858C44.5814 124.858 45.253 125.529 45.253 126.358C45.253 127.299 45.2029 128.448 44.9959 129.483C44.8772 130.076 44.6815 130.654 44.2829 131.175C43.8917 131.687 43.3975 132.022 42.9109 132.292C42.6333 132.446 42.3553 132.538 42.145 132.598C41.9885 132.643 41.8134 132.685 41.6831 132.716C41.6469 132.724 41.6141 132.732 41.5862 132.739C41.4408 132.774 41.3553 132.799 41.2982 132.819C41.2891 132.831 41.2782 132.846 41.2648 132.866C41.243 132.899 41.2172 132.941 41.1803 133.004C41.1619 133.036 41.1429 133.069 41.1204 133.109L41.118 133.113C41.0969 133.15 41.0729 133.192 41.0477 133.235C40.9355 133.428 40.8338 133.635 40.759 133.835C40.6827 134.039 40.648 134.201 40.6403 134.315C40.6378 134.351 40.6384 134.378 40.6398 134.395M40.669 134.412C40.6699 134.413 40.6987 134.427 40.7739 134.441C40.8575 134.456 40.972 134.467 41.1293 134.469C41.2878 134.471 41.4574 134.464 41.6617 134.454C41.6802 134.454 41.6991 134.453 41.7184 134.452C41.8965 134.443 42.1111 134.433 42.3154 134.433H45.6656C46.7208 134.433 47.2559 134.406 47.7915 134.125C47.8062 134.117 47.8134 134.112 47.8159 134.11C47.8184 134.108 47.8205 134.106 47.8235 134.103C47.8288 134.097 47.8523 134.07 47.8895 133.996C48.026 133.723 48.2036 133.414 48.3471 133.165C48.4093 133.057 48.4651 132.96 48.5083 132.882C48.684 132.565 48.7936 132.327 48.8551 132.103C49.0146 131.523 49.0036 130.935 48.9887 130.139C48.9839 129.882 48.9787 129.603 48.9787 129.296C48.9787 129.164 48.9826 129.026 48.9858 128.913C48.9864 128.893 48.987 128.874 48.9875 128.855C48.9911 128.722 48.993 128.616 48.9909 128.52C48.9864 128.318 48.9642 128.248 48.9595 128.235C48.9558 128.226 48.9489 128.21 48.9395 128.188C48.8801 128.049 48.7225 127.681 48.6572 127.288C48.521 126.471 49.073 125.698 49.8901 125.562C50.7073 125.426 51.4801 125.978 51.6163 126.795C51.6163 126.795 51.6164 126.795 51.6163 126.795C51.6166 126.797 51.6176 126.805 51.631 126.84C51.641 126.867 51.6532 126.897 51.6763 126.952L51.6791 126.959C51.6998 127.009 51.7281 127.077 51.7573 127.152C51.9444 127.636 51.9824 128.107 51.9901 128.453C51.9941 128.63 51.9901 128.799 51.9863 128.937C51.9857 128.962 51.985 128.985 51.9844 129.008C51.9812 129.122 51.9787 129.21 51.9787 129.296C51.9787 129.454 51.9829 129.633 51.9875 129.828C52.0077 130.684 52.0352 131.853 51.7477 132.898C51.5919 133.465 51.3472 133.948 51.1324 134.336C51.0349 134.512 50.9531 134.653 50.8796 134.78C50.7667 134.975 50.6733 135.136 50.5728 135.337C50.2882 135.906 49.8626 136.425 49.1888 136.779C47.9435 137.435 46.7119 137.434 45.7535 137.433C45.7239 137.433 45.6946 137.433 45.6656 137.433H42.3154C42.1855 137.433 42.0421 137.44 41.8471 137.449C41.832 137.45 41.8166 137.45 41.8009 137.451C41.5983 137.461 41.3488 137.472 41.0921 137.468C40.6048 137.462 39.8985 137.408 39.2369 137.049C38.6582 136.734 38.2109 136.282 37.9371 135.715C37.671 135.165 37.614 134.6 37.6472 134.112C37.7107 133.176 38.1187 132.305 38.4533 131.729C38.4686 131.702 38.4856 131.672 38.5045 131.638C38.6508 131.378 38.9117 130.914 39.3581 130.523C39.8811 130.066 40.5434 129.905 40.8501 129.83C40.859 129.828 40.8676 129.826 40.8759 129.824C40.9393 129.809 40.9938 129.796 41.0425 129.784C41.1537 129.758 41.2343 129.738 41.321 129.714C41.421 129.685 41.456 129.668 41.4561 129.668C41.4561 129.668 41.4553 129.669 41.454 129.67C41.7876 129.484 41.8714 129.39 41.8997 129.353C41.9206 129.326 41.9861 129.235 42.0542 128.894C42.2041 128.145 42.253 127.225 42.253 126.358C42.253 125.529 42.9246 124.858 43.753 124.858" fill="white"/>
<path fill-rule="evenodd" clip-rule="evenodd" d="M63.8289 125.887C64.5924 126.209 64.9507 127.088 64.6292 127.852C64.5792 127.971 64.5362 128.167 64.52 128.492C64.5085 128.723 64.5114 128.926 64.5149 129.167C64.5168 129.297 64.5188 129.438 64.5188 129.6C64.5188 129.64 64.5216 129.697 64.529 129.811C64.5295 129.82 64.5301 129.829 64.5308 129.839C64.537 129.935 64.5457 130.068 64.549 130.203C64.5554 130.461 64.5556 130.973 64.3273 131.475C64.003 132.188 63.475 132.665 63.0016 132.986C62.5431 133.298 62.0469 133.521 61.7051 133.675L61.6964 133.679C61.6669 133.692 61.6274 133.711 61.5797 133.733C61.3954 133.821 61.0879 133.967 60.7532 134.083C60.7449 134.101 60.7363 134.121 60.7275 134.141C60.6673 134.281 60.6098 134.443 60.555 134.609C60.528 134.692 60.5033 134.77 60.4791 134.847L60.4772 134.853C60.4897 134.881 60.5061 134.914 60.5276 134.951C60.5817 135.045 60.6463 135.132 60.7036 135.194C60.7051 135.195 60.7066 135.195 60.7081 135.195C60.8063 135.205 60.9455 135.208 61.1359 135.199C61.304 135.192 61.4738 135.178 61.6668 135.162C61.6931 135.159 61.7198 135.157 61.747 135.155C61.9514 135.138 62.2102 135.117 62.4488 135.117C63.1077 135.117 63.7674 135.09 64.4634 135.062L64.4767 135.061C65.1586 135.033 65.8759 135.003 66.6033 135.003C66.8281 135.003 67.039 135 67.2401 134.984C67.4439 134.967 67.5962 134.94 67.7026 134.907C67.7035 134.907 67.7045 134.906 67.7054 134.906C67.7257 134.803 67.7451 134.707 67.7632 134.615C67.9812 133.524 68.0362 133.249 67.7759 132.728C66.9622 131.101 66.6486 129.588 66.6486 127.84C66.6486 127.011 67.3201 126.34 68.1486 126.34C68.977 126.34 69.6486 127.011 69.6486 127.84C69.6486 129.166 69.8724 130.213 70.4592 131.387C71.2105 132.889 70.9237 134.216 70.7034 135.234C70.674 135.37 70.6457 135.501 70.6213 135.626C70.3661 136.93 69.3755 137.532 68.5822 137.775C67.846 138.001 67.0504 138.003 66.6033 138.003C65.9432 138.003 65.2828 138.03 64.587 138.059L64.5721 138.06C63.8907 138.088 63.1745 138.117 62.4488 138.117C62.353 138.117 62.215 138.126 61.9934 138.145C61.9693 138.147 61.9441 138.149 61.9182 138.151C61.7307 138.167 61.5007 138.186 61.2719 138.196C60.8319 138.216 60.012 138.235 59.313 137.873C58.698 137.553 58.2124 136.944 57.9253 136.444C57.7657 136.165 57.6162 135.834 57.5288 135.473C57.445 135.128 57.3899 134.638 57.5616 134.123C57.5685 134.102 57.5794 134.067 57.5939 134.021C57.6609 133.805 57.8035 133.347 57.9706 132.958C58.0758 132.713 58.2267 132.403 58.4358 132.122C58.6172 131.878 59.018 131.415 59.6889 131.274C59.7995 131.25 59.8984 131.204 60.1149 131.104C60.2071 131.061 60.3206 131.008 60.4653 130.943C60.8327 130.778 61.1012 130.651 61.3162 130.504C61.4405 130.42 61.5106 130.353 61.5504 130.304C61.5503 130.296 61.5502 130.286 61.5499 130.276C61.5482 130.205 61.5434 130.131 61.5363 130.021L61.5351 130.003C61.5285 129.9 61.5188 129.75 61.5188 129.6C61.5188 129.523 61.5175 129.429 61.5161 129.324C61.5123 129.038 61.5074 128.671 61.5237 128.343C61.5475 127.866 61.6185 127.271 61.8643 126.688C62.1858 125.924 63.0654 125.566 63.8289 125.887Z" fill="white"/>
<path d="M185.385 97.5056C183.593 97.8042 181.822 97.9536 180.073 97.9536C177.982 97.9536 176.147 97.7189 174.569 97.2496C174.654 96.8229 174.697 96.5242 174.697 96.3536C174.697 95.3722 174.334 94.5616 173.609 93.9216C172.883 93.2816 172.073 92.9616 171.177 92.9616C170.537 92.9616 169.961 93.1749 169.449 93.6016C168.979 93.9856 168.702 94.5829 168.617 95.3936C168.489 95.7776 168.425 96.1189 168.425 96.4176L168.489 96.9936C168.489 97.0789 168.489 97.1216 168.489 97.1216C168.787 98.0176 169.214 98.6362 169.769 98.9776C170.366 99.3189 171.07 99.5536 171.881 99.6816C174.014 99.9802 176.169 100.77 178.345 102.05C180.521 103.33 182.27 104.823 183.593 106.53C184.403 107.639 185.043 108.876 185.513 110.242C185.982 111.564 186.217 112.866 186.217 114.146C186.217 116.364 185.726 118.519 184.745 120.61C183.635 122.999 181.929 124.855 179.625 126.178C177.321 127.5 174.803 128.162 172.073 128.162C169.299 128.162 166.59 127.628 163.945 126.562C161.342 125.452 159.23 123.874 157.609 121.826C155.987 119.778 155.262 117.41 155.433 114.722V114.146C156.67 113.932 158.035 113.826 159.529 113.826C160.809 113.826 161.897 113.847 162.793 113.89C163.603 113.932 165.054 113.954 167.145 113.954C167.187 115.234 167.571 116.236 168.297 116.962C169.065 117.687 169.939 118.05 170.921 118.05C171.774 118.05 172.478 117.772 173.033 117.218C173.63 116.663 173.929 115.874 173.929 114.85C173.929 114.466 173.907 114.167 173.865 113.954C173.651 112.375 172.905 111.266 171.625 110.626C170.345 109.986 168.617 109.452 166.441 109.026L165.481 108.834C163.646 108.492 162.046 107.746 160.681 106.594C159.145 105.1 157.993 103.5 157.225 101.794C156.457 100.087 156.073 98.3802 156.073 96.6736C156.073 93.9002 156.905 91.2976 158.569 88.8656C160.275 86.3909 162.473 84.5989 165.161 83.4896C166.825 82.8069 168.894 82.4656 171.369 82.4656C174.569 82.4656 177.491 83.0629 180.137 84.2576C182.099 85.2816 183.657 86.6256 184.809 88.2896C185.961 89.9536 186.537 91.9162 186.537 94.1776C186.537 95.0309 186.409 96.1402 186.153 97.5056H185.385Z" fill="white"/>
<path d="M157.367 127.714C156.002 128.012 154.53 128.162 152.951 128.162C151.074 128.162 149.026 127.927 146.807 127.458C146.509 126.647 146.039 124.94 145.399 122.338C144.759 119.692 144.247 117.943 143.863 117.09L142.583 117.026L141.495 117.09C141.325 117.602 141.047 118.86 140.663 120.866C140.365 122.53 140.066 123.895 139.767 124.962C139.469 125.986 139.042 126.924 138.487 127.778C138.061 127.863 137.421 127.906 136.567 127.906C136.183 127.906 135.351 127.863 134.071 127.778C130.359 127.607 128.29 127.522 127.863 127.522C127.863 127.308 127.906 126.818 127.991 126.05C128.077 125.239 128.205 124.343 128.375 123.362L129.783 115.298C130.893 108.684 131.938 102.924 132.919 98.0176C133.943 93.1109 135.266 87.9269 136.887 82.4656C137.485 82.3802 138.295 82.3376 139.319 82.3376H139.703C142.477 82.3376 145.186 82.2309 147.831 82.0176C148.343 84.0229 148.813 86.0069 149.239 87.9696C149.666 89.8896 150.05 91.6176 150.391 93.1536C151.757 99.0842 152.674 103.031 153.143 104.994L157.367 127.714ZM143.991 108.898C143.053 100.364 142.605 96.0976 142.647 96.0976L142.583 95.4576C142.583 95.4576 142.541 95.9696 142.455 96.9936C142.327 100.194 142.135 102.732 141.879 104.61L141.303 108.898H143.991Z" fill="white"/>
<path d="M131.567 83.4256C130.244 90.4656 128.751 97.3136 127.087 103.97C125.423 110.626 123.332 118.562 120.815 127.778C119.876 127.778 119.236 127.799 118.895 127.842L118.255 127.906C117.487 127.991 116.698 128.034 115.887 128.034C113.199 128.034 111.108 127.778 109.615 127.266C105.903 114.167 103.407 99.7243 102.127 83.9376C102.511 83.5109 103.3 83.1909 104.495 82.9776C105.69 82.7643 107.012 82.6576 108.463 82.6576C109.828 82.6576 111.364 82.8069 113.071 83.1056L113.455 88.8016C113.711 93.0256 113.988 96.6949 114.287 99.8096C114.586 102.882 115.012 105.932 115.567 108.962C116.079 106.615 116.868 102.348 117.935 96.1616C119.215 88.6096 120.068 84.1083 120.495 82.6576C122.159 82.9989 124.058 83.1696 126.191 83.1696C128.324 83.1696 129.839 83.2549 130.735 83.4256H131.567Z" fill="white"/>
<path d="M88.0427 122.146C85.3547 116.258 83.584 112.183 82.7307 109.922V122.21C82.7307 124.855 82.752 126.668 82.7947 127.65C81.6427 127.991 80.384 128.162 79.0187 128.162C78.592 128.162 77.952 128.119 77.0987 128.034C76.16 127.948 75.4773 127.906 75.0507 127.906L71.9147 127.778V122.978C71.9147 120.247 71.872 116.364 71.7867 111.33C71.744 108.812 71.7227 104.994 71.7227 99.8736C71.7227 93.0043 71.9147 87.2443 72.2987 82.5936C73.4507 82.2949 74.7307 82.1456 76.1387 82.1456C77.0773 82.1456 78.208 82.2309 79.5307 82.4016C80.896 82.5723 81.8347 82.8283 82.3467 83.1696C82.944 84.2789 83.6693 85.8363 84.5227 87.8416C85.4187 89.8043 86.272 91.7669 87.0827 93.7296L89.6427 99.6176C89.5573 96.6309 89.5147 93.1109 89.5147 89.0576C89.5147 85.7723 89.536 83.5109 89.5787 82.2736C91.328 81.9323 93.184 81.7616 95.1467 81.7616C96.8107 81.7616 98.5387 81.9536 100.331 82.3376V127.714C100.203 127.714 99.9467 127.778 99.5627 127.906C99.136 128.076 98.3893 128.162 97.3227 128.162C97.1093 128.204 95.9787 128.14 93.9307 127.97C93.4187 127.927 92.7573 127.884 91.9467 127.842C91.1787 127.799 90.7307 127.799 90.6027 127.842L88.0427 122.146Z" fill="white"/>
<path d="M71.4298 127.714C70.0644 128.012 68.5924 128.162 67.0138 128.162C65.1364 128.162 63.0884 127.927 60.8698 127.458C60.5711 126.647 60.1018 124.94 59.4618 122.338C58.8218 119.692 58.3098 117.943 57.9258 117.09L56.6458 117.026L55.5578 117.09C55.3871 117.602 55.1098 118.86 54.7258 120.866C54.4271 122.53 54.1284 123.895 53.8298 124.962C53.5311 125.986 53.1044 126.924 52.5498 127.778C52.1231 127.863 51.4831 127.906 50.6298 127.906C50.2458 127.906 49.4138 127.863 48.1338 127.778C44.4218 127.607 42.3524 127.522 41.9258 127.522C41.9258 127.308 41.9684 126.818 42.0538 126.05C42.1391 125.239 42.2671 124.343 42.4378 123.362L43.8458 115.298C44.9551 108.684 46.0004 102.924 46.9818 98.0176C48.0058 93.1109 49.3284 87.9269 50.9498 82.4656C51.5471 82.3802 52.3578 82.3376 53.3818 82.3376H53.7658C56.5391 82.3376 59.2484 82.2309 61.8938 82.0176C62.4058 84.0229 62.8751 86.0069 63.3018 87.9696C63.7284 89.8896 64.1124 91.6176 64.4538 93.1536C65.8191 99.0842 66.7364 103.031 67.2058 104.994L71.4298 127.714ZM58.0538 108.898C57.1151 100.364 56.6671 96.0976 56.7098 96.0976L56.6458 95.4576C56.6458 95.4576 56.6031 95.9696 56.5178 96.9936C56.3898 100.194 56.1978 102.732 55.9418 104.61L55.3658 108.898H58.0538Z" fill="white"/>
<path d="M24.6789 93.5375C24.5936 93.7082 24.4869 95.0522 24.3589 97.5695C24.2309 100.087 24.1669 102.647 24.1669 105.25C24.1669 107.895 24.2309 110.114 24.3589 111.906C24.4869 113.058 24.8283 114.188 25.3829 115.298C25.9376 116.364 26.5989 117.09 27.3669 117.474C28.8603 117.559 29.9909 116.876 30.7589 115.426H30.6949C31.0789 114.615 31.2709 113.399 31.2709 111.778C31.2709 110.498 31.3563 109.495 31.5269 108.77C32.5936 108.94 33.6176 109.026 34.5989 109.026L37.5429 108.962C39.0789 108.962 40.5296 109.132 41.8949 109.474C42.4069 110.967 42.6629 112.524 42.6629 114.146C42.6629 116.578 42.0443 118.882 40.8069 121.058C39.6123 123.234 37.9483 125.004 35.8149 126.37C33.6816 127.735 31.3136 128.46 28.7109 128.546C27.9429 128.674 27.0469 128.738 26.0229 128.738C22.6949 128.738 19.7723 127.991 17.2549 126.498C14.7376 125.004 13.3296 122.764 13.0309 119.778C12.8176 115.511 12.7109 110.924 12.7109 106.018C12.7109 101.964 12.7323 98.6362 12.7749 96.0335L12.8389 93.1535C12.7963 92.5135 12.8389 91.7882 12.9669 90.9775C13.1376 90.1242 13.3509 89.3775 13.6069 88.7375C13.9909 87.7562 14.4816 86.7749 15.0789 85.7935C15.7189 84.8122 16.3803 84.0015 17.0629 83.3615C17.9589 82.6362 19.2816 82.0175 21.0309 81.5055C22.6949 80.9935 24.4229 80.7375 26.2149 80.7375C29.1163 80.7375 31.8469 81.4202 34.4069 82.7855C36.9669 84.1082 39.0149 85.9429 40.5509 88.2895C42.0869 90.5935 42.8549 93.1109 42.8549 95.8415C42.8549 97.4629 42.5563 99.0842 41.9589 100.706C40.1669 101.09 38.6736 101.282 37.4789 101.282C35.8576 101.282 33.6176 101.004 30.7589 100.45L30.5669 98.0175C30.4816 96.0549 30.2256 94.5829 29.7989 93.6015C29.4149 92.5775 28.5616 92.0869 27.2389 92.1295C27.1963 92.1295 27.1323 92.1509 27.0469 92.1935C27.0043 92.1935 26.9189 92.1935 26.7909 92.1935H26.8549C25.5323 92.4069 24.8069 92.8549 24.6789 93.5375Z" fill="white"/>
<path fill-rule="evenodd" clip-rule="evenodd" d="M63.6326 94.3468C63.3934 94.3834 63.0932 94.4294 62.7909 94.4527C61.9649 94.5162 61.2438 93.8981 61.1803 93.0722C61.1167 92.2462 61.7348 91.5251 62.5608 91.4615C62.7454 91.4473 62.944 91.4172 63.2169 91.3754L63.2228 91.3746C63.4729 91.3363 63.7902 91.2877 64.1159 91.265C64.7835 91.2185 65.6741 91.2638 66.5224 91.8294C67.0585 92.1867 67.4486 92.5798 67.7527 93.0687C67.995 93.4583 68.1649 93.8906 68.3045 94.2455C68.3184 94.2809 68.332 94.3155 68.3454 94.3493C68.3551 94.3738 68.3649 94.3985 68.3747 94.4235C68.7849 95.4592 69.3339 96.8453 69.4974 98.1982C69.577 98.8567 69.6033 99.5037 69.6262 100.087L69.6279 100.132C69.6507 100.715 69.6711 101.235 69.7274 101.749C69.7537 101.989 69.782 102.235 69.8108 102.486C69.9513 103.707 70.1036 105.031 70.1036 106.352C70.1036 107.001 70.0179 107.68 69.5146 108.282C69.3284 108.504 69.1153 108.675 68.9962 108.77C68.9917 108.774 68.9874 108.777 68.9832 108.781C68.9709 108.791 68.9588 108.8 68.9469 108.81C68.8235 108.909 68.7194 108.992 68.5951 109.107C68.4918 109.202 68.4008 109.285 68.3202 109.359C67.8312 109.806 67.7292 109.899 67.6327 110.189C67.3708 110.975 66.5213 111.399 65.7354 111.137C64.9494 110.875 64.5247 110.026 64.7867 109.24C65.1501 108.15 65.8778 107.507 66.3651 107.077C66.4358 107.014 66.5015 106.956 66.5602 106.902C66.7664 106.712 66.9484 106.567 67.0707 106.469C67.0818 106.46 67.0923 106.452 67.1024 106.444C67.1031 106.417 67.1036 106.387 67.1036 106.352C67.1036 105.219 66.9755 104.099 66.8362 102.883C66.806 102.619 66.7753 102.35 66.7452 102.075C66.6772 101.455 66.6532 100.84 66.6316 100.285C66.6306 100.258 66.6295 100.231 66.6285 100.204C66.6052 99.6097 66.582 99.0787 66.5191 98.5582C66.4068 97.629 66.0027 96.5821 65.556 95.4534C65.3675 94.9773 65.2954 94.7982 65.2051 94.653C65.1524 94.5683 65.0803 94.4735 64.8583 94.3255C64.7993 94.2862 64.6858 94.2326 64.3245 94.2578C64.1383 94.2708 63.9374 94.3001 63.6706 94.3409C63.6581 94.3429 63.6454 94.3448 63.6326 94.3468Z" fill="white"/>
<path fill-rule="evenodd" clip-rule="evenodd" d="M63.044 92.3183C63.8375 92.0802 64.6737 92.5305 64.9117 93.324C65.2851 94.5684 65.8012 95.7876 66.3454 97.0729C66.4909 97.4166 66.6384 97.7649 66.7856 98.1198C67.0693 98.803 67.2416 99.4914 67.384 100.078C67.396 100.128 67.4078 100.176 67.4194 100.224C67.5531 100.777 67.6644 101.237 67.8249 101.683C68.0467 102.299 68.0834 102.929 68.0989 103.378C68.1042 103.531 68.1074 103.664 68.1102 103.782C68.1171 104.074 68.122 104.278 68.1518 104.486C68.2689 105.307 67.6991 106.066 66.879 106.183C66.0589 106.301 65.2991 105.731 65.1819 104.911C65.1245 104.508 65.1143 104.052 65.1068 103.715C65.1048 103.628 65.1031 103.549 65.1007 103.481C65.0864 103.065 65.0536 102.841 65.0022 102.699C64.7834 102.091 64.6345 101.473 64.5077 100.947C64.4944 100.892 64.4814 100.839 64.4686 100.786C64.3254 100.196 64.1991 99.7138 64.0149 99.2699C63.8869 98.9616 63.7525 98.6446 63.6152 98.3206C63.0634 97.0188 62.4636 95.6037 62.0383 94.1861C61.8002 93.3926 62.2505 92.5563 63.044 92.3183Z" fill="white"/>
<path fill-rule="evenodd" clip-rule="evenodd" d="M132.254 126.123C133.082 126.123 133.754 126.794 133.754 127.623V136.203C133.754 136.797 133.675 137.449 133.342 138.015C132.959 138.668 132.372 138.991 131.81 139.123C131.33 139.236 130.829 139.217 130.484 139.201C130.365 139.195 130.253 139.189 130.145 139.183C129.882 139.168 129.641 139.154 129.364 139.154H125.955C125.127 139.154 124.455 138.483 124.455 137.654C124.455 136.826 125.127 136.154 125.955 136.154H129.364C129.734 136.154 130.102 136.175 130.387 136.191C130.476 136.196 130.557 136.201 130.627 136.204C130.673 136.207 130.715 136.208 130.754 136.21C130.754 136.207 130.754 136.205 130.754 136.203V127.623C130.754 126.794 131.425 126.123 132.254 126.123Z" fill="white"/>
<path fill-rule="evenodd" clip-rule="evenodd" d="M152.198 126.24C152.962 126.562 153.32 127.441 152.999 128.205C152.838 128.585 152.764 129.177 152.747 130.019C152.742 130.24 152.743 130.495 152.743 130.765C152.743 131.359 152.744 132.026 152.695 132.556C152.601 133.573 152.618 134.582 152.635 135.669C152.642 136.116 152.649 136.578 152.649 137.058C152.649 137.056 152.649 137.061 152.65 137.074C152.651 137.087 152.652 137.105 152.654 137.129C152.657 137.165 152.66 137.197 152.664 137.237C152.666 137.261 152.668 137.289 152.671 137.323C152.684 137.464 152.707 137.718 152.689 137.982C152.672 138.227 152.609 138.7 152.273 139.132C151.876 139.643 151.309 139.842 150.796 139.854C150.232 139.867 149.707 139.814 149.254 139.762C149.147 139.749 149.045 139.737 148.947 139.725C148.609 139.684 148.32 139.649 148.016 139.631C147.603 139.607 147.193 139.58 146.786 139.554C145.485 139.47 144.213 139.388 142.984 139.388C142.156 139.388 141.484 138.716 141.484 137.888C141.484 137.059 142.156 136.388 142.984 136.388C144.32 136.388 145.727 136.479 147.048 136.564C147.438 136.59 147.821 136.615 148.192 136.636C148.599 136.66 149.006 136.71 149.356 136.752C149.442 136.763 149.524 136.773 149.602 136.782C149.618 136.784 149.633 136.785 149.648 136.787C149.646 136.494 149.642 136.189 149.637 135.875C149.618 134.729 149.598 133.47 149.708 132.281C149.744 131.882 149.743 131.472 149.742 130.98C149.741 130.677 149.74 130.342 149.747 129.959C149.765 129.091 149.833 127.993 150.234 127.041C150.555 126.277 151.435 125.919 152.198 126.24Z" fill="white"/>
<path fill-rule="evenodd" clip-rule="evenodd" d="M151.274 92.6192C151.192 92.6257 151.111 92.6307 151.036 92.6331C150.47 92.6514 149.883 92.6467 149.334 92.6424C149.104 92.6406 148.88 92.6389 148.668 92.6389C147.84 92.6389 147.168 91.9673 147.168 91.1389C147.168 90.3104 147.84 89.6389 148.668 89.6389C148.932 89.6389 149.184 89.6409 149.429 89.6429C149.948 89.647 150.435 89.6509 150.939 89.6347C151.077 89.6302 151.187 89.6165 151.348 89.5966C151.459 89.5829 151.593 89.5663 151.776 89.5477C152.129 89.5118 152.651 89.4743 153.193 89.5948C154.088 89.7935 154.338 90.5796 154.385 90.7435C154.457 90.9975 154.464 91.2353 154.465 91.3687C154.465 91.662 154.424 91.9847 154.387 92.234C154.347 92.4993 154.298 92.7647 154.262 92.9599C154.226 93.1525 154.216 93.2165 154.214 93.2163C154.214 93.2162 154.214 93.2133 154.214 93.2081C154.161 94.1048 154.216 95.0034 154.277 96.0092C154.282 96.0809 154.286 96.1531 154.29 96.2259C154.332 96.9076 154.45 97.5886 154.585 98.3691C154.593 98.412 154.6 98.4551 154.608 98.4985C154.747 99.3016 154.899 100.21 154.926 101.152C154.926 101.151 154.926 101.15 154.926 101.15C154.926 101.15 154.93 101.186 154.957 101.334C154.959 101.342 154.96 101.35 154.962 101.36C154.985 101.481 155.03 101.723 155.037 101.966C155.045 102.208 155.031 102.761 154.633 103.26C154.186 103.819 153.562 103.947 153.135 103.952C153.071 103.953 153.012 103.953 152.958 103.954C152.467 103.959 152.329 103.96 152.17 104.019C151.866 104.131 151.521 104.221 151.092 104.221C150.264 104.221 149.592 103.55 149.592 102.721C149.592 101.897 150.258 101.227 151.082 101.222C151.091 101.219 151.106 101.214 151.131 101.205C151.397 101.107 151.665 101.047 151.918 101.01C151.882 100.382 151.777 99.7374 151.652 99.0102C151.642 98.9549 151.632 98.899 151.622 98.8426C151.493 98.0998 151.348 97.2628 151.296 96.4074C151.291 96.3253 151.286 96.2423 151.281 96.1586C151.22 95.1816 151.154 94.0987 151.221 93.0021C151.229 92.8794 151.252 92.7475 151.262 92.6914C151.262 92.6893 151.262 92.6873 151.263 92.6854C151.266 92.6644 151.27 92.6422 151.274 92.6192ZM151.465 91.372C151.465 91.3725 151.465 91.3729 151.465 91.3734C151.464 91.3588 151.465 91.3572 151.465 91.372Z" fill="white"/>
<path fill-rule="evenodd" clip-rule="evenodd" d="M150.764 90.1984C151.591 90.2419 152.226 90.9479 152.183 91.7752C152.156 92.2787 152.124 92.758 152.092 93.2196C151.976 94.93 151.877 96.3984 152.16 97.9601C152.309 98.7752 151.768 99.556 150.953 99.7042C150.138 99.8524 149.357 99.3118 149.209 98.4967C148.851 96.5303 148.986 94.5934 149.108 92.84C149.138 92.4213 149.166 92.0131 149.187 91.6175C149.23 90.7902 149.936 90.1549 150.764 90.1984Z" fill="white"/>
<path fill-rule="evenodd" clip-rule="evenodd" d="M135.385 87.1389C135.58 87.1551 135.683 87.1636 135.752 87.1636C136.58 87.1636 137.252 87.8351 137.252 88.6636C137.252 89.492 136.58 90.1636 135.752 90.1636C135.545 90.1636 135.271 90.1404 135.057 90.1223C135.014 90.1186 134.972 90.1151 134.935 90.1121C134.742 90.0966 134.563 90.0846 134.401 90.0805C134.311 90.9817 134.274 92.0052 134.24 92.9719C134.232 93.1738 134.225 93.3732 134.218 93.5684C134.195 94.1529 134.202 94.6401 134.21 95.1881C134.212 95.3311 134.214 95.4783 134.216 95.6324C134.228 95.6313 134.24 95.6302 134.253 95.629C134.285 95.626 134.318 95.6228 134.354 95.6194C134.608 95.595 134.952 95.562 135.285 95.562C136.114 95.562 136.785 96.2335 136.785 97.062C136.785 97.8904 136.114 98.562 135.285 98.562C135.106 98.562 134.915 98.5799 134.644 98.6054C134.608 98.6088 134.571 98.6124 134.531 98.616C134.25 98.6423 133.835 98.68 133.432 98.6441C133.028 98.6082 132.405 98.4814 131.898 97.9765C131.368 97.4494 131.219 96.77 131.219 96.1807C131.219 95.9024 131.215 95.6204 131.211 95.3332C131.203 94.7336 131.195 94.1113 131.22 93.4531C131.227 93.2772 131.233 93.0908 131.24 92.8963C131.283 91.6855 131.336 90.1632 131.521 88.9336C131.656 88.0343 132.293 87.541 132.82 87.3227C133.29 87.1276 133.79 87.0887 134.139 87.0807C134.515 87.0722 134.891 87.0989 135.176 87.1218C135.255 87.1282 135.324 87.1339 135.385 87.1389ZM133.675 95.653C133.675 95.6529 133.678 95.6533 133.683 95.6544C133.677 95.6536 133.675 95.6531 133.675 95.653Z" fill="white"/>
<path fill-rule="evenodd" clip-rule="evenodd" d="M134.488 88.8028C135.313 88.8778 135.921 89.6074 135.846 90.4324C135.694 92.1029 135.619 93.741 135.619 95.429C135.619 96.2574 134.948 96.929 134.119 96.929C133.291 96.929 132.619 96.2574 132.619 95.429C132.619 93.6495 132.699 91.9207 132.859 90.1608C132.934 89.3358 133.663 88.7278 134.488 88.8028Z" fill="white"/>
<path fill-rule="evenodd" clip-rule="evenodd" d="M46.9113 87.3411L49.747 87.3411C50.5754 87.3411 51.247 88.0126 51.247 88.8411C51.247 89.6695 50.5754 90.3411 49.747 90.3411H47.5345C47.4583 90.6233 47.374 90.8861 47.2964 91.1227C47.2762 91.1843 47.2566 91.2437 47.2376 91.3015C47.1311 91.6244 47.0425 91.8932 46.9704 92.1735C46.5542 93.7922 46.3893 95.5878 46.3419 97.3839C46.3735 97.3802 46.4058 97.3764 46.4389 97.3723C46.8049 97.3276 47.1857 97.2685 47.5597 97.2104C47.6393 97.198 47.7187 97.1857 47.7976 97.1736L47.8022 97.1729C48.1835 97.1142 48.6797 97.0379 49.0233 97.0379C49.8517 97.0379 50.5233 97.7095 50.5233 98.5379C50.5233 99.3663 49.8517 100.038 49.0233 100.038C49.0246 100.038 49.0252 100.038 49.0252 100.038C49.0252 100.038 49.0086 100.038 48.9698 100.042C48.9264 100.045 48.8692 100.051 48.7963 100.061C48.6489 100.079 48.4684 100.106 48.2536 100.139C48.1841 100.149 48.1113 100.161 48.0357 100.172C47.6615 100.231 47.2221 100.299 46.8028 100.35C46.3198 100.409 45.7435 100.462 45.2532 100.424C45.0254 100.407 44.6556 100.361 44.2977 100.18C43.8745 99.9666 43.3262 99.4662 43.3262 98.6344C43.3262 96.3518 43.4574 93.7891 44.0649 91.4264C44.1643 91.0401 44.2887 90.6637 44.3943 90.3441C44.412 90.2904 44.4292 90.2384 44.4457 90.1881C44.5676 89.8162 44.6615 89.5096 44.7222 89.2062C44.7259 89.1879 44.7301 89.1661 44.7348 89.1419C44.7561 89.0325 44.7872 88.8727 44.8205 88.748C44.8614 88.5951 44.9704 88.2133 45.2993 87.8816C45.663 87.5147 46.0861 87.4104 46.3306 87.3735C46.5454 87.3411 46.7716 87.3411 46.9113 87.3411ZM45.4413 97.4284C45.4415 97.4282 45.4464 97.4288 45.4555 97.4306C45.4456 97.4295 45.4411 97.4286 45.4413 97.4284Z" fill="white"/>
<path fill-rule="evenodd" clip-rule="evenodd" d="M48.1435 89.9132C48.9103 90.2269 49.2776 91.1027 48.9639 91.8695C48.4367 93.1582 48.4575 94.4703 48.484 96.148C48.4902 96.5375 48.4967 96.9469 48.4967 97.3802C48.4967 98.2086 47.8251 98.8802 46.9967 98.8802C46.1682 98.8802 45.4967 98.2086 45.4967 97.3802C45.4967 97.0736 45.4898 96.7492 45.4827 96.4108C45.4468 94.7073 45.4034 92.6495 46.1872 90.7336C46.5009 89.9668 47.3768 89.5996 48.1435 89.9132Z" fill="white"/>
<path d="M87.5703 73.614C88.3611 73.9419 89.1397 73.9385 89.9678 74.0745C90.4125 74.1475 90.7545 74.4684 91.1904 74.5825C91.6051 74.6912 91.9473 75.2441 91.0793 74.908C90.4399 74.6605 89.8232 74.4631 89.1501 74.3285C88.818 74.2621 88.0093 74.2062 87.8561 73.8998" stroke="#79E05F" stroke-width="3" stroke-linecap="round"/>
<path d="M88.7125 74.0427C87.9468 73.6824 87.1359 73.1853 86.2832 73.1853" stroke="#79E05F" stroke-width="3" stroke-linecap="round"/>
<path d="M114.422 36.164C117.467 35.9812 120.219 35.2061 123.235 35.2061" stroke="#A9B33B" stroke-width="3" stroke-linecap="round"/>
<path d="M148.141 47.2759C151.046 48.5851 153.738 50.1496 156.953 50.1496" stroke="#A9B33B" stroke-width="3" stroke-linecap="round"/>
<path d="M75.1477 35.2061C71.9622 36.6661 68.3492 37.3379 65.377 39.2293" stroke="#A9B33B" stroke-width="3" stroke-linecap="round"/>
<path d="M33.957 25.2438C37.0291 25.4615 40.0754 25.6269 43.1531 25.6269" stroke="#A9B33B" stroke-width="3" stroke-linecap="round"/>
<path d="M89.7559 49.2448C96.9723 45.9214 104.911 46.5816 112.608 47.3919" stroke="#A9B33B" stroke-width="3" stroke-linecap="round"/>
<path fill-rule="evenodd" clip-rule="evenodd" d="M172.433 3.00606C172.048 3.03658 171.59 3.16683 171.247 3.27786C171.033 3.34701 170.806 3.50998 170.536 3.87308C170.265 4.2389 170.043 4.67749 169.766 5.22364C169.752 5.25087 169.738 5.27837 169.724 5.30614C169.573 5.60358 169.473 6.02371 169.397 6.62665C169.376 6.79298 169.354 7.01059 169.33 7.24863C169.287 7.68396 169.236 8.18761 169.172 8.57095C169.154 8.67757 169.136 8.7828 169.118 8.88678C168.969 9.76695 168.836 10.5578 168.792 11.3459C168.777 11.6063 168.727 11.8607 168.668 12.0704C168.615 12.2613 168.525 12.5294 168.377 12.7729L168.376 12.7754C168.327 12.8563 168.135 13.1722 167.756 13.3827C167.524 13.5112 167.139 13.6428 166.678 13.5418C166.22 13.4417 165.93 13.166 165.776 12.9631C165.52 12.6251 165.465 12.2632 165.449 12.1589L165.449 12.1574C165.426 12.0073 165.418 11.8558 165.417 11.7167C165.36 11.6927 165.266 11.6666 165.138 11.658C164.999 11.6487 164.849 11.6617 164.708 11.6971C164.699 11.6993 164.692 11.7014 164.686 11.7032C164.682 11.7114 164.675 11.7237 164.668 11.7409C164.642 11.8028 164.611 11.9061 164.589 12.0642C164.568 12.2206 164.558 12.4026 164.558 12.6102C164.558 12.8345 164.545 13.095 164.534 13.3266C164.532 13.3743 164.53 13.4208 164.528 13.4655C164.515 13.7514 164.505 14.0176 164.512 14.2677C164.518 14.5209 164.54 14.713 164.572 14.8509C164.589 14.9271 164.605 14.9656 164.611 14.9782C165.112 15.6245 165.003 16.5558 164.362 17.0686C163.715 17.5861 162.771 17.4812 162.254 16.8343C161.611 16.0309 161.529 14.9775 161.513 14.3432C161.504 13.9798 161.517 13.6238 161.531 13.3283C161.534 13.2666 161.536 13.2086 161.539 13.154C161.55 12.9258 161.558 12.7559 161.558 12.6102C161.558 12.0555 161.602 11.2854 161.907 10.5681C162.246 9.76928 162.906 9.05512 163.98 8.78668C164.639 8.62191 165.388 8.60129 166.093 8.7863C166.115 8.65164 166.138 8.51908 166.16 8.38895C166.178 8.28244 166.196 8.17757 166.213 8.07453C166.267 7.7513 166.294 7.47359 166.325 7.14696C166.349 6.89301 166.376 6.60949 166.421 6.25203C166.507 5.56721 166.656 4.72338 167.049 3.94855C167.07 3.90688 167.092 3.86371 167.114 3.81922C167.364 3.32468 167.696 2.66672 168.126 2.08666C168.61 1.43346 169.306 0.752901 170.324 0.423527C170.694 0.303576 171.437 0.0756514 172.196 0.0154487C172.576 -0.0146329 173.055 -0.0119296 173.535 0.126799C174.038 0.272573 174.607 0.592141 174.971 1.21926C175.387 1.93492 175.456 2.76191 175.464 3.3345C175.47 3.81474 175.431 4.31986 175.403 4.68103C175.396 4.76789 175.39 4.84643 175.385 4.9143C175.306 6.06487 174.899 7.12689 174.583 7.9532C174.57 7.98696 174.557 8.02033 174.545 8.0533C174.25 8.82304 174.039 9.40759 173.959 9.95108C174.076 9.94466 174.174 9.94478 174.247 9.94527C174.456 9.94669 174.658 9.96064 174.802 9.97069C174.972 9.98255 175.046 9.9873 175.093 9.9873C175.15 9.9873 175.21 9.98708 175.27 9.98685C175.539 9.98584 175.833 9.98474 176.071 10.0028C176.36 10.0246 176.885 10.0874 177.357 10.4517C177.861 10.8398 178.047 11.3632 178.133 11.7126C178.217 12.0496 178.257 12.4467 178.292 12.8184C178.295 12.8528 178.298 12.8886 178.302 12.9257C178.346 13.3908 178.408 14.0563 178.382 14.7184C178.355 15.4106 178.227 16.3354 177.684 17.1186C177.353 17.5966 177.217 17.9527 177.146 18.3076C177.064 18.7116 177.053 19.1677 177.053 19.9398C177.053 20.7682 176.381 21.4398 175.553 21.4398C174.724 21.4398 174.053 20.7682 174.053 19.9398C174.053 19.2106 174.055 18.4584 174.205 17.7147C174.365 16.9221 174.678 16.1912 175.218 15.411C175.273 15.3306 175.365 15.0974 175.385 14.5996C175.402 14.146 175.358 13.6669 175.311 13.1675C175.309 13.1438 175.307 13.12 175.305 13.0962C175.301 13.0581 175.298 13.0217 175.294 12.9869C175.231 12.9871 175.164 12.9873 175.093 12.9873C174.932 12.9873 174.752 12.9746 174.628 12.9658C174.616 12.965 174.604 12.9642 174.594 12.9634C174.444 12.953 174.329 12.9459 174.227 12.9452C174.224 12.9452 174.221 12.9452 174.219 12.9452C174.158 13.0142 174.079 13.1108 173.966 13.2539C173.959 13.2638 173.951 13.274 173.942 13.2846C173.76 13.5157 173.463 13.892 173.064 14.2026C172.973 14.2732 172.811 14.3876 172.589 14.4688C172.365 14.5508 171.95 14.6432 171.482 14.4609C170.996 14.272 170.743 13.9024 170.629 13.6492C170.522 13.4127 170.495 13.2 170.487 13.0874C170.457 12.7107 170.556 12.3176 170.595 12.1608L170.596 12.1579C170.653 11.9282 170.726 11.6919 170.782 11.5157C170.805 11.4435 170.827 11.3758 170.845 11.3215C170.849 11.3086 170.853 11.2964 170.857 11.2851C170.87 11.2441 170.877 11.2215 170.881 11.2109C170.883 11.2023 170.884 11.2016 170.882 11.2054C170.901 11.1383 170.915 11.0465 170.92 10.8704C170.92 10.8525 170.92 10.804 170.921 10.7387C170.922 10.5682 170.923 10.2833 170.931 10.1297C170.986 8.95868 171.4 7.87795 171.72 7.04056C171.727 7.02104 171.735 7.00165 171.742 6.98239C172.097 6.05374 172.346 5.37912 172.392 4.70789C172.4 4.59251 172.409 4.48097 172.417 4.37215C172.444 4.02452 172.469 3.70472 172.464 3.37683C172.462 3.23246 172.454 3.10904 172.441 3.00547C172.438 3.00566 172.436 3.00586 172.433 3.00606ZM175.218 12.4219C175.218 12.4218 175.218 12.4228 175.219 12.4248C175.218 12.4229 175.218 12.4219 175.218 12.4219ZM173.476 13.0287C173.475 13.0288 173.476 13.0253 173.477 13.0178C173.476 13.0248 173.476 13.0285 173.476 13.0287ZM165.765 11.3087C165.765 11.3087 165.765 11.3065 165.767 11.3023C165.766 11.3067 165.765 11.3088 165.765 11.3087ZM164.696 11.6888C164.696 11.6888 164.695 11.6892 164.695 11.6899L164.696 11.6888ZM165.467 11.7436C165.467 11.7436 165.467 11.7434 165.466 11.7429L165.467 11.7436Z" fill="#EDB480"/>
<path d="M171.814 37.4712C173.649 37.4712 175.718 37.5565 178.022 37.7272L180.07 37.8552L181.158 37.9192L181.286 39.2632C181.329 39.7325 181.414 40.7565 181.542 42.3352C181.67 43.8712 181.734 45.1939 181.734 46.3032C181.734 48.4792 181.563 50.6339 181.222 52.7672C180.923 54.6872 180.177 56.3085 178.982 57.6312C177.787 58.9539 176.273 59.9565 174.438 60.6392C171.323 61.5779 168.443 62.0472 165.798 62.0472C163.75 62.0472 161.894 61.7272 160.23 61.0872C156.859 59.5939 154.662 56.9912 153.638 53.2792C153.339 52.1272 153.083 50.6339 152.87 48.7992C152.87 49.2685 152.635 45.4499 152.166 37.3432C152.166 35.9779 152.187 34.8899 152.23 34.0792C152.315 30.2392 152.529 27.4232 152.87 25.6312C153.467 22.2179 154.854 19.7005 157.03 18.0792C158.651 16.8845 160.87 16.0739 163.686 15.6472C164.667 15.5192 165.67 15.4552 166.694 15.4552C170.961 15.4552 174.459 16.5432 177.19 18.7192C179.921 20.8525 181.286 23.9032 181.286 27.8712L181.158 29.9192V30.8152C180.859 30.8579 180.497 30.8792 180.07 30.8792C179.643 30.8792 179.259 30.8792 178.918 30.8792H175.846C174.225 30.8792 172.667 30.7939 171.174 30.6232C170.15 27.1245 168.998 25.3752 167.718 25.3752C167.505 25.3752 167.27 25.3539 167.014 25.3112C166.758 25.2685 166.523 25.2472 166.31 25.2472C165.627 25.2472 165.03 25.5032 164.518 26.0152C164.475 26.0579 164.326 26.5699 164.07 27.5512C163.259 30.2392 162.854 34.2072 162.854 39.4552C162.854 42.0579 162.939 44.2125 163.11 45.9192C163.409 48.7779 163.985 50.5912 164.838 51.3592C165.265 51.6152 165.606 51.7859 165.862 51.8712C166.331 51.9139 166.886 51.8925 167.526 51.8072C168.209 51.6792 168.806 51.5085 169.318 51.2952C170.043 50.9965 170.513 50.3139 170.726 49.2472C170.854 48.7352 170.982 48.0739 171.11 47.2632C171.238 46.4525 171.281 45.9619 171.238 45.7912H169.702C168.123 45.8765 166.907 45.7485 166.054 45.4072C165.969 44.5112 165.926 43.4019 165.926 42.0792V41.3752C165.926 41.2045 165.926 40.9272 165.926 40.5432C165.969 40.1165 165.926 39.3272 165.798 38.1752C166.139 38.1752 166.865 38.0899 167.974 37.9192C169.681 37.6205 170.961 37.4712 171.814 37.4712Z" fill="white"/>
<path d="M137.379 55.3272C134.691 49.4392 132.92 45.3646 132.067 43.1032V55.3912C132.067 58.0366 132.088 59.8499 132.131 60.8312C130.979 61.1726 129.72 61.3432 128.355 61.3432C127.928 61.3432 127.288 61.3006 126.435 61.2152C125.496 61.1299 124.813 61.0872 124.387 61.0872L121.251 60.9592V56.1592C121.251 53.4286 121.208 49.5459 121.123 44.5112C121.08 41.9939 121.059 38.1752 121.059 33.0552C121.059 26.1859 121.251 20.4259 121.635 15.7752C122.787 15.4766 124.067 15.3272 125.475 15.3272C126.413 15.3272 127.544 15.4126 128.867 15.5832C130.232 15.7539 131.171 16.0099 131.683 16.3512C132.28 17.4606 133.005 19.0179 133.859 21.0232C134.755 22.9859 135.608 24.9486 136.419 26.9112L138.979 32.7992C138.893 29.8126 138.851 26.2926 138.851 22.2392C138.851 18.9539 138.872 16.6926 138.915 15.4552C140.664 15.1139 142.52 14.9432 144.483 14.9432C146.147 14.9432 147.875 15.1352 149.667 15.5192V60.8952C149.539 60.8952 149.283 60.9592 148.899 61.0872C148.472 61.2579 147.725 61.3432 146.659 61.3432C146.445 61.3859 145.315 61.3219 143.267 61.1512C142.755 61.1086 142.093 61.0659 141.283 61.0232C140.515 60.9806 140.067 60.9806 139.939 61.0232L137.379 55.3272Z" fill="white"/>
<path d="M118.067 15.9673C118.067 20.9593 118.003 25.9939 117.875 31.0713C117.704 37.8126 117.619 43.1246 117.619 47.0073C117.619 51.4873 117.747 55.9459 118.003 60.3833C117.363 61.0233 115.699 61.3433 113.011 61.3433C111.475 61.3433 110.344 61.3219 109.619 61.2793L108.851 61.2153L107.699 61.1513C106.846 61.1513 105.758 61.3219 104.435 61.6633C104.691 57.9513 104.819 54.0046 104.819 49.8233C104.819 48.1593 104.776 45.7059 104.691 42.4633L104.627 38.7513C104.456 34.2286 104.371 30.5593 104.371 27.7433C104.371 23.5193 104.563 19.3593 104.947 15.2633C105.502 15.1779 106.099 15.1353 106.739 15.1353C107.08 15.1353 107.55 15.1779 108.147 15.2633C108.744 15.3059 109.448 15.3059 110.259 15.2633C112.478 15.3913 114.248 15.4339 115.571 15.3913H118.067V15.9673Z" fill="white"/>
<path d="M97.1653 48.7992C98.872 51.4019 100.237 53.5992 101.261 55.3912C102.328 57.1832 103.203 58.9966 103.885 60.8312H102.861C102.349 60.8312 101.197 60.8739 99.4053 60.9592C97.6133 61.0446 96.184 61.0872 95.1173 61.0872C94.52 61.0872 93.624 61.0446 92.4293 60.9592L91.3413 60.8952C88.568 54.5806 86.0933 49.8446 83.9173 46.6872V48.3512C83.9173 50.9966 84.0667 54.4099 84.3653 58.5912V58.5272C84.408 58.8259 84.4293 59.3379 84.4293 60.0632C82.9787 60.7459 80.5893 61.0872 77.2613 61.0872L75.7253 61.0232H72.3333C71.864 61.0232 71.6293 57.1619 71.6293 49.4392C71.6293 42.4419 71.5653 35.4446 71.4373 28.4472C71.3093 21.4072 71.1173 17.1832 70.8613 15.7752L72.5893 15.5192C75.1493 15.1779 77.2613 14.9219 78.9253 14.7512C80.5893 14.5806 82.296 14.4952 84.0453 14.4952C85.9227 14.4952 87.5227 14.5806 88.8453 14.7512C91.32 15.0499 93.624 15.9032 95.7573 17.3112C97.9333 18.7192 99.6613 20.4472 100.941 22.4952C102.264 24.5432 102.925 26.6552 102.925 28.8312C102.925 30.9219 102.243 33.2046 100.877 35.6792C100.024 37.2152 98.8933 38.4952 97.4853 39.5192C96.0773 40.5432 94.392 41.1619 92.4293 41.3752C93.5813 43.4232 94.9253 45.5566 96.4613 47.7752C96.76 48.2872 96.9947 48.6286 97.1653 48.7992ZM87.9493 32.4792C88.5467 32.3086 89.016 31.8819 89.3573 31.1992C89.6987 30.5166 89.8693 29.7059 89.8693 28.7672C89.8693 27.0179 89.4427 25.8872 88.5893 25.3752C88.0347 25.0339 87.4587 24.8206 86.8613 24.7352C86.3067 24.6499 85.6667 24.6072 84.9413 24.6072L82.1893 25.0552C82.2747 26.3352 82.3173 27.4232 82.3173 28.3192C82.3173 30.6232 82.3813 32.0312 82.5093 32.5432C83.2347 32.6286 84.1307 32.6712 85.1973 32.6712C86.1787 32.6712 87.096 32.6072 87.9493 32.4792Z" fill="white"/>
<path d="M68.788 26.7833C68.916 28.106 68.98 29.45 68.98 30.8153L68.916 31.9673V33.1193C68.8306 34.5273 68.788 36.5966 68.788 39.3273C68.788 42.3566 68.724 44.6606 68.596 46.2393L68.404 48.3513C68.1906 51.8073 67.316 54.7513 65.78 57.1833C65.14 58.0793 64.18 58.8686 62.9 59.5513C61.62 60.234 60.212 60.7886 58.676 61.2153C57.0973 61.6846 55.2413 61.9193 53.108 61.9193C52.1266 61.9193 51.444 61.898 51.06 61.8553C48.9693 61.6846 47.092 61.2366 45.428 60.5113C43.8066 59.7433 42.612 58.634 41.844 57.1833C40.82 55.2633 40.2653 52.8526 40.18 49.9513L40.052 47.9033C40.0093 47.562 39.988 46.858 39.988 45.7913C39.7746 42.2926 39.668 38.9433 39.668 35.7433C39.668 33.7806 39.732 31.818 39.86 29.8553C39.988 27.722 40.3506 25.6526 40.948 23.6473C41.588 21.5993 42.548 19.8073 43.828 18.2713L45.236 17.5033C47.9666 16.1806 50.9533 15.5193 54.196 15.5193C56.244 15.5193 58.164 15.7966 59.956 16.3513C61.7906 16.8633 63.3906 17.6313 64.756 18.6553C66.2493 20.0206 67.2306 21.3646 67.7 22.6873C68.212 24.0526 68.5746 25.418 68.788 26.7833ZM58.868 33.7593L58.612 30.4313C58.5266 29.2366 58.228 28.1913 57.716 27.2953C57.2466 26.3566 56.628 25.6953 55.86 25.3113C55.5186 25.1833 55.1773 25.1193 54.836 25.1193C53.812 25.1193 52.8093 25.4606 51.828 26.1433C51.316 26.57 50.804 27.1886 50.292 27.9993C49.8226 28.7673 49.46 29.5566 49.204 30.3673C48.7773 32.2446 48.564 34.634 48.564 37.5353C48.564 38.986 48.5853 40.074 48.628 40.7993V40.7353C48.7986 41.5886 48.9266 42.7193 49.012 44.1273L49.076 45.0233C49.2466 47.1566 49.4813 48.7353 49.78 49.7593V49.6953C50.164 50.5486 50.7186 51.21 51.444 51.6793C52.212 52.106 53.0226 52.3193 53.876 52.3193C54.5586 52.3193 55.2413 52.17 55.924 51.8713C56.6493 51.53 57.268 51.0606 57.78 50.4633C58.2066 49.9086 58.4626 49.4393 58.548 49.0553C58.676 48.6713 58.74 48.074 58.74 47.2633C58.74 46.538 58.7613 46.0046 58.804 45.6633L58.868 44.8313L58.932 43.6153V42.7193L58.996 41.5033V38.4313L58.868 34.0793V33.7593Z" fill="white"/>
<path d="M34.384 39.3273C36.0053 41.3753 37.2 43.082 37.968 44.4473C38.736 45.77 39.12 47.3273 39.12 49.1193C39.12 49.8446 39.056 50.634 38.928 51.4873C38.2453 55.2846 36.4747 57.8873 33.616 59.2953C30.7573 60.6606 27.088 61.3433 22.608 61.3433C21.2853 61.3433 17.1467 61.0873 10.192 60.5753C10.064 57.3753 10 52.2553 10 45.2153C10 37.578 10.0213 30.6873 10.064 24.5433V16.2233C13.8187 15.1566 17.424 14.6233 20.88 14.6233C25.7013 14.6233 29.648 15.69 32.72 17.8233C35.8347 19.914 37.392 23.37 37.392 28.1913C37.392 31.306 36.304 34.698 34.128 38.3673V38.3033C34.0427 38.474 34 38.602 34 38.6873C34 38.8153 34.128 39.0073 34.384 39.2633V39.3273ZM27.28 28.1913C26.64 26.9966 25.8293 26.2713 24.848 26.0153C24.1653 25.93 23.632 25.8873 23.248 25.8873C22.1387 25.802 21.3067 25.6953 20.752 25.5673C20.88 26.2926 20.944 27.402 20.944 28.8953V31.1993C20.944 32.266 20.9653 33.098 21.008 33.6953H22.864C24.7413 33.6953 26.0213 33.0553 26.704 31.7753C27.2587 30.7513 27.536 29.9193 27.536 29.2793C27.536 28.8953 27.4507 28.5326 27.28 28.1913ZM27.28 47.8393C27.28 47.114 27.152 46.3246 26.896 45.4713V45.5353C26.6827 45.066 26.384 44.6393 26 44.2553C25.616 43.8713 25.232 43.6366 24.848 43.5513C24.1653 43.3806 23.1627 43.2526 21.84 43.1673C21.712 43.1673 21.5627 43.1886 21.392 43.2313C21.264 43.2313 21.1147 43.21 20.944 43.1673C20.5173 44.9593 20.304 46.5166 20.304 47.8393C20.304 49.3753 20.5387 50.57 21.008 51.4233C22.544 51.466 23.7387 51.4233 24.592 51.2953C25.488 51.1246 26.2347 50.6766 26.832 49.9513C27.1307 49.5246 27.28 48.8206 27.28 47.8393Z" fill="white"/>
<path fill-rule="evenodd" clip-rule="evenodd" d="M52.0263 32.6714C52.0327 32.6744 52.0386 32.6773 52.044 32.6799C52.5758 32.9342 53.3206 33.5611 53.2025 34.6063C53.1097 35.4277 52.5183 35.9015 52.1719 36.1012C51.777 36.3288 51.2233 36.4907 50.6283 36.3842C50.6195 36.3826 50.6108 36.381 50.602 36.3793C50.491 36.3893 50.3715 36.3886 50.2449 36.372C49.755 36.308 49.397 36.0391 49.1803 35.7606C48.988 35.5134 48.9064 35.2639 48.869 35.1193C48.8283 34.9621 48.8128 34.8202 48.8061 34.7172C48.7929 34.5129 48.8067 34.3277 48.8209 34.2074C48.8271 34.1545 48.8389 34.0669 48.8606 33.974C48.866 33.9507 48.8792 33.8958 48.9017 33.8289C48.9122 33.7977 48.9357 33.7307 48.9748 33.65C48.9946 33.6092 49.029 33.5429 49.0804 33.4665C49.1246 33.4009 49.2256 33.2606 49.3962 33.1261C49.4177 33.1091 49.4424 33.0907 49.4702 33.0715C49.8646 32.6138 50.4198 32.3613 51.0325 32.3915C51.4919 32.4141 51.8824 32.6021 52.0263 32.6714ZM48.8275 34.3663C48.8268 34.3482 48.8265 34.33 48.8265 34.3117C48.8265 34.312 48.8265 34.3125 48.8265 34.3132C48.8264 34.3189 48.8263 34.3378 48.8275 34.3663Z" fill="#E0D043"/>
<path fill-rule="evenodd" clip-rule="evenodd" d="M54.8613 32.2284C55.5082 31.7109 56.4522 31.8158 56.9697 32.4627C57.0866 32.6088 57.177 32.7709 57.2431 32.9096C57.593 33.2796 57.7962 33.7573 57.802 34.2721C57.8084 34.8318 57.581 35.3246 57.261 35.6712C56.9518 36.0061 56.4134 36.3464 55.7212 36.2921C54.9489 36.2316 54.4338 35.722 54.1781 35.2105C54.0251 34.9046 53.9398 34.5684 53.9478 34.2128C53.9555 33.8721 54.0476 33.6018 54.1154 33.4352C54.1482 33.3546 54.1818 33.2836 54.2004 33.2442C54.2024 33.2398 54.2043 33.2358 54.2061 33.232C54.2093 33.2253 54.212 33.2195 54.2145 33.2143C54.2802 32.89 54.4483 32.608 54.6807 32.3989C54.7353 32.3382 54.7955 32.2811 54.8613 32.2284Z" fill="#E0D043"/>
<path fill-rule="evenodd" clip-rule="evenodd" d="M56.4418 39.8167C57.1159 40.2983 57.272 41.2351 56.7905 41.9092C56.6939 42.0445 56.5993 42.2101 56.474 42.4451C56.4552 42.4804 56.4352 42.5184 56.4139 42.5586C56.3095 42.7564 56.1776 43.0063 56.0351 43.2383C55.67 43.8326 55.0899 44.5624 54.0506 44.915C52.983 45.2773 52.0748 44.797 51.5949 44.4593C51.1199 44.125 50.7226 43.6903 50.5083 43.4559C50.4964 43.443 50.4851 43.4306 50.4744 43.4189C49.9146 42.8082 49.9558 41.8593 50.5665 41.2996C51.1772 40.7398 52.126 40.781 52.6858 41.3917L52.6916 41.398C52.8077 41.5247 52.9129 41.6395 53.0265 41.7511C53.1148 41.8379 53.1932 41.9077 53.2617 41.9614C53.3203 41.9026 53.3903 41.8121 53.4788 41.668C53.5657 41.5267 53.6423 41.382 53.7442 41.1893C53.7698 41.141 53.797 41.0896 53.8264 41.0345C53.9588 40.786 54.1306 40.4717 54.3493 40.1655C54.8308 39.4914 55.7677 39.3352 56.4418 39.8167Z" fill="#E0D043"/>
<path fill-rule="evenodd" clip-rule="evenodd" d="M86.5332 27.8996C86.5093 27.8806 86.5139 27.8811 86.535 27.9011C86.5344 27.9006 86.5338 27.9001 86.5332 27.8996ZM87.5753 29.3615C87.5786 29.6142 87.5179 29.8711 87.3864 30.1078C86.9841 30.832 86.0709 31.0929 85.3467 30.6906C85.3442 30.6892 85.3409 30.6874 85.3367 30.6851C85.2638 30.645 84.9428 30.4682 84.6638 30.2459C84.544 30.1505 84.2582 29.9151 84.0674 29.5574C83.9629 29.3615 83.8224 29.0089 83.8777 28.563C83.9387 28.0712 84.2068 27.705 84.4952 27.4784C84.6592 27.3495 84.817 27.2815 84.8611 27.2625L84.8622 27.262C84.885 27.2522 84.9073 27.2431 84.9289 27.2347C84.9445 27.2272 84.9595 27.2202 84.9739 27.2137C85.4388 26.8997 86.0376 26.8762 86.5214 27.136C86.6344 27.1755 86.7577 27.2313 86.8814 27.3108C87.2241 27.5311 87.3915 27.8249 87.4665 27.9868C87.5475 28.1614 87.5848 28.3209 87.6039 28.4282C87.6424 28.644 87.6411 28.846 87.6295 28.9992C87.6213 29.1081 87.6049 29.232 87.5753 29.3615Z" fill="#A04AC8"/>
<path fill-rule="evenodd" clip-rule="evenodd" d="M24.4028 28.3491C23.8099 27.982 23.0213 28.0688 22.5237 28.5956C22.4486 28.6752 22.3652 28.7727 22.2876 28.8877C22.2129 28.9982 22.1179 29.1622 22.0543 29.3732C21.9891 29.5893 21.9442 29.9004 22.0379 30.2513C22.1358 30.6184 22.3505 30.8975 22.5867 31.0833C22.805 31.2551 23.0243 31.3356 23.1713 31.3755C23.3235 31.4169 23.4593 31.4311 23.5601 31.436C23.7588 31.4455 23.937 31.4234 24.0703 31.398C24.2054 31.3723 24.358 31.3311 24.5097 31.2683C24.5837 31.2376 24.6926 31.1873 24.8101 31.11C24.87 31.0706 24.9509 31.012 25.0364 30.9308C25.1179 30.8533 25.2392 30.7218 25.3402 30.5302C25.4456 30.3305 25.5435 30.0347 25.5097 29.6768C25.4751 29.3099 25.3152 29.0186 25.1393 28.8177C24.9756 28.6309 24.8009 28.523 24.6878 28.4642C24.577 28.4066 24.4767 28.3712 24.4028 28.3491Z" fill="#A04AC8"/>
<path fill-rule="evenodd" clip-rule="evenodd" d="M24.5437 46.8393C24.8169 47.2525 24.956 47.8553 24.6992 48.4718C24.5758 48.768 24.3571 49.0316 24.0575 49.2071C23.7778 49.3711 23.5058 49.4131 23.3183 49.4186C22.9748 49.4286 22.7115 49.3232 22.602 49.2751C22.3492 49.1638 22.1356 49.001 21.9778 48.8397C21.8947 48.7547 21.7832 48.6258 21.6866 48.4536C21.605 48.308 21.4368 47.9608 21.4852 47.4985C21.5035 47.3234 21.5491 47.1624 21.6152 47.017C21.8397 46.4372 22.343 46.1442 22.7597 46.061C23.1316 45.9867 23.4408 46.0623 23.6098 46.1193C23.9628 46.2385 24.3074 46.4819 24.5437 46.8393Z" fill="#A04AC8"/>
<path d="M22.8125 65.483C23.1503 67.0718 23.3849 68.6806 23.7409 70.2655C24.0276 71.5413 24.4406 72.7582 24.8163 74.006C25.0892 74.912 25.2513 75.9587 25.3373 76.9049" stroke="white" stroke-linecap="round"/>
<path d="M27.6816 64.4611C28.0407 65.5184 28.1586 66.7273 28.3162 67.8275C28.5586 69.5201 28.6211 71.2808 29.1311 72.9239C29.4302 73.8879 29.8382 74.8085 30.1029 75.7861C30.1625 76.0059 30.1415 76.1763 30.2666 76.3639" stroke="white" stroke-linecap="round"/>
<path d="M17.1602 70.2923C17.9763 70.0332 18.8137 69.8644 19.6549 69.7078C22.2691 69.2213 24.9075 68.8779 27.5334 68.4621C29.3167 68.1797 31.0857 67.8932 32.8302 67.4201C33.7561 67.169 34.6652 66.8812 35.6155 66.7455" stroke="white" stroke-linecap="round"/>
<path d="M18.002 74.861C18.692 74.7982 19.3859 74.581 20.0793 74.5003C21.8398 74.2954 23.5871 74.1536 25.3226 73.7689C26.5596 73.4947 27.7603 73.1058 28.9663 72.7235C30.4433 72.2554 31.9231 71.8474 33.4582 71.6281C34.4301 71.4893 35.5837 71.4388 36.4573 70.9535" stroke="white" stroke-linecap="round"/>
<path d="M31.6581 68.333C31.0017 68.4315 29.099 68.9733 29.3345 69.9527C29.5261 70.7491 30.4248 71.4669 31.2171 71.5894C31.7988 71.6794 32.4123 71.3352 32.8454 70.9789C33.6045 70.3543 33.095 69.3374 32.5146 68.757C31.907 68.1494 31.1797 68.4994 30.5133 68.7909" stroke="#9F4AC8" stroke-linecap="round"/>
<path d="M18.4141 69.969C19.6109 70.7622 20.7128 71.7004 21.8825 72.534C22.1923 72.7549 22.5071 72.9519 22.8397 73.1349C22.9163 73.177 22.9774 73.227 23.0386 73.2882" stroke="#79E05F" stroke-linecap="round"/>
<path d="M18.5254 73.8476C18.8288 73.5442 19.1378 73.2453 19.4308 72.9318C19.8469 72.4866 20.148 71.9581 20.5559 71.5105C20.8252 71.2148 21.1793 71.0168 21.4489 70.7231C21.6328 70.5227 21.7832 70.2834 21.9109 70.0435C21.9944 69.8866 22.1183 69.6913 22.2921 69.6333" stroke="#79E05F" stroke-linecap="round"/>
<path d="M120.722 69.9355C120.928 67.6701 124.831 68.6582 123.964 70.9437C123.514 72.1283 122.359 73.0946 121.489 73.968C121.009 74.4504 120.504 74.9073 120.023 75.3885C119.791 75.6205 119.732 75.7029 120.114 75.7322C122.128 75.886 124.166 75.5031 126.186 75.5031" stroke="white" stroke-linecap="round"/>
<path d="M129.588 69.6262C129.332 71.0896 129.086 72.537 129.072 74.0253C129.072 74.0646 129.072 74.6072 129.072 74.2658" stroke="white" stroke-linecap="round"/>
<path d="M127.836 72.2037C128.536 71.7537 129.804 71.7913 130.62 71.7913" stroke="white" stroke-linecap="round"/>
<path d="M133.506 68.5952C134.15 68.5415 134.6 68.4287 135.253 68.6754C136.155 69.0164 136.766 69.7191 136.37 70.7088C136.143 71.2757 135.651 71.6729 135.075 71.8487C134.892 71.9047 134.711 71.8645 135.029 71.9632C135.575 72.1326 136.134 72.2847 136.668 72.4902C137.311 72.7379 137.344 73.2244 137.47 73.8362C137.587 74.4055 137.073 74.6116 136.582 74.7241C135.779 74.908 134.32 75.1086 133.609 74.5751" stroke="white" stroke-linecap="round"/>
<path d="M140.723 71.0697C141.527 70.8824 142.458 70.871 143.197 70.5542" stroke="white" stroke-linecap="round"/>
<path d="M140.414 73.0286C141.38 72.81 142.413 72.6478 143.301 72.2037" stroke="white" stroke-linecap="round"/>
<path d="M145.672 68.0797C146.016 68.0568 149.332 67.5711 149.378 67.9594C149.427 68.3769 149.328 68.853 149.263 69.2597C149.093 70.326 148.899 71.3908 148.719 72.4558C148.611 73.0968 148.557 73.8704 148.307 74.4778C148.24 74.6403 148.249 74.2919 148.249 74.2659" stroke="#DE43D8" stroke-linecap="round"/>
<path d="M146.6 71.9975C147.154 71.6412 148.021 71.6882 148.662 71.6882" stroke="#DE43D8" stroke-linecap="round"/>
<path d="M151.961 68.2859C152.112 67.8699 153.016 67.3452 153.427 67.6558C154.171 68.2175 153.622 69.0902 153.301 69.7064C153.069 70.1524 152.473 71.8824 153.003 72.3184C153.37 72.6201 154.144 72.1994 154.538 72.1007" stroke="#DE43D8" stroke-linecap="round"/>
<path d="M153.818 75.0906C153.818 75.7404 154.207 75.3691 154.466 74.9303C154.871 74.2434 154.025 74.0588 154.025 74.7813" stroke="#DE43D8" stroke-linecap="round"/>
</svg>
